<svg width="189" height="22" viewBox="0 0 189 22" fill="none" xmlns="http://www.w3.org/2000/svg">
<path d="M0.671875 4.17188C0.671875 4.14062 0.671875 4.10938 0.671875 4.07812C0.671875 4.04687 0.671875 4.03125 0.671875 4.03125C0.671875 4 0.703125 4 0.765625 4.03125C0.921875 4.15625 1.07812 4.21875 1.23438 4.21875C1.39062 4.25 1.90625 3.98438 2.78125 3.42188C3.65625 2.85938 4.75 2.60938 6.0625 2.67188C6.46875 2.70313 6.92188 2.90625 7.42188 3.28125C7.95312 3.65625 8.28125 3.92188 8.40625 4.07812C8.53125 4.20313 8.70312 4.51562 8.92188 5.01562C9.14062 5.01562 9.3125 5 9.4375 4.96875L11.125 4.35938L12.0625 4.21875C12.0938 4.09375 12.1562 3.89062 12.25 3.60938C12.3438 3.29687 12.375 2.98438 12.3438 2.67188C12.3125 2.35937 11.9688 2.125 11.3125 1.96875C10.6562 1.8125 10.3281 1.70312 10.3281 1.64062L10.0469 1.21875C11.5469 1.0625 12.5938 1.32812 13.1875 2.01562C13.7812 2.70313 14.0938 3.07813 14.125 3.14062L14.2656 3.60938L13.8906 3.75L13.75 4.125C13.8438 4.28125 13.9219 4.39063 13.9844 4.45312C14.0781 4.48438 14.4375 4.54688 15.0625 4.64062C15.6875 4.70312 16.1562 4.84375 16.4688 5.0625C16.7812 5.28125 16.9375 5.45312 16.9375 5.57812C16.9062 5.70313 16.7812 5.84375 16.5625 6C16.375 6.15625 15.9844 6.29688 15.3906 6.42188C14.7969 6.54688 14.1094 6.75 13.3281 7.03125V7.96875C15.2656 8.03125 16.2656 8.3125 16.3281 8.8125C16.4219 9.3125 16.0625 9.92188 15.25 10.6406C15.75 11.1094 16.0781 11.3594 16.2344 11.3906L17.2656 11.6719L17.3594 11.8125L18.1562 12.0938L18.4844 12.5156L18.1094 12.75L14.2656 13.5469L13.1875 13.9219C15.4688 15.1094 16.7031 15.8125 16.8906 16.0312C17.0781 16.2188 17.2969 16.6094 17.5469 17.2031C17.7969 17.7656 17.9375 18.2031 17.9688 18.5156L17.7812 19.9688C17.75 20.2188 17.6875 20.4062 17.5938 20.5312C17.4375 20.5625 17.3438 20.5469 17.3125 20.4844L17.2188 20.2969C17.1875 20.2969 17.0312 20.1875 16.75 19.9688L16.375 19.5938L16.0938 19.3594C16 19.2656 15.9375 18.9375 15.9062 18.375C15.9062 17.8125 15.8281 17.3906 15.6719 17.1094C15.5469 16.7969 15.2812 16.375 14.875 15.8438C14.5 15.2812 14.0938 14.8594 13.6562 14.5781C13.2188 14.2656 12.9219 14.1406 12.7656 14.2031C12.6406 14.7031 12.5469 15.1094 12.4844 15.4219C12.4531 15.7031 12.4219 15.8438 12.3906 15.8438L11.875 16.4062V16.6406C11.7188 16.7656 11.625 16.8594 11.5938 16.9219L11.0312 18L10.4688 18.75C10.25 18.7812 10.1094 18.7969 10.0469 18.7969C9.98438 18.8281 9.67188 19.0156 9.10938 19.3594C8.57812 19.7344 7.90625 19.9219 7.09375 19.9219C6.625 19.9531 6.375 19.6719 6.34375 19.0781C6.34375 18.4844 6.45312 18 6.67188 17.625C6.67188 17.5938 6.85938 17.2969 7.23438 16.7344C7.64062 16.1719 7.9375 15.8906 8.125 15.8906C7.65625 16.5156 7.375 16.9844 7.28125 17.2969C7.21875 17.6094 7.20312 17.875 7.23438 18.0938V18.7031C7.39062 18.7969 7.625 18.7031 7.9375 18.4219L8.73438 17.7656C9.01562 17.4844 9.29688 17.0469 9.57812 16.4531C9.89062 15.8594 10.0625 15.5156 10.0938 15.4219L10.1875 14.7188C9.59375 15.0312 8.8125 15.1719 7.84375 15.1406C7.34375 15.1406 7.07812 14.9375 7.04688 14.5312L7.09375 14.1562L7.14062 13.7812C6.92188 13.9062 6.73438 13.9375 6.57812 13.875C6.39062 13.9688 6.17188 14.0625 5.92188 14.1562C5.70312 14.25 5.51562 14.3594 5.35938 14.4844C5.10938 14.4531 4.89062 14.4375 4.70312 14.4375C4.54688 14.5938 4.45312 14.7031 4.42188 14.7656C4.42188 14.8281 4.42188 14.9062 4.42188 15C4.45312 15.0625 4.45312 15.2188 4.42188 15.4688C4.42188 15.7188 4.45312 16.0312 4.51562 16.4062L4.60938 17.2969C4.60938 17.5469 4.60938 17.8125 4.60938 18.0938C4.64062 18.375 4.67188 18.5781 4.70312 18.7031C4.73438 18.8281 4.76562 18.8906 4.79688 18.8906L4.65625 19.3594L4.60938 19.9219C4.29688 20.0469 4.01562 19.875 3.76562 19.4062C3.54688 18.9375 3.39062 18.375 3.29688 17.7188C3.20312 17.0312 3.15625 16.5156 3.15625 16.1719L3.0625 14.7188C3.03125 14.3438 3 13.2969 2.96875 11.5781C2.9375 9.82812 2.9375 9.60938 2.96875 10.9219C3.03125 12.2344 3.04688 13 3.01562 13.2188C3.01562 13.4062 3.01562 13.25 3.01562 12.75C3.04688 12.2188 3.10938 11.6094 3.20312 10.9219L3.39062 9.375C3.51562 8.40625 3.57812 7.82812 3.57812 7.64062C3.60938 7.45312 3.64062 7.3125 3.67188 7.21875L3.76562 6.89062L3.8125 6.1875L3.85938 5.53125C3.39062 5.78125 2.98438 5.79688 2.64062 5.57812L2.21875 5.25L1.75 4.96875L0.953125 4.35938L0.671875 4.17188ZM5.03125 12.2344C5.1875 12.1719 5.42188 11.9844 5.73438 11.6719L6.85938 10.5938L7.23438 10.0312C6.29688 10 5.6875 9.92188 5.40625 9.79688C5.28125 10.5469 5.15625 11.3594 5.03125 12.2344ZM6.01562 5.95312C6.45312 5.67188 6.78125 5.35937 7 5.01562C7.25 4.64062 7.375 4.40625 7.375 4.3125V4.125C6.8125 4.15625 6.25 4.28125 5.6875 4.5C5.625 4.59375 5.59375 4.65625 5.59375 4.6875C5.625 4.6875 5.6875 4.76563 5.78125 4.92188C5.875 5.07812 5.9375 5.26562 5.96875 5.48438L6.01562 5.95312ZM6.76562 8.71875C7.42188 9.125 7.9375 9.54688 8.3125 9.98438C8.6875 10.3906 8.875 10.7812 8.875 11.1562C8.90625 11.5 8.90625 11.7188 8.875 11.8125C8.84375 11.875 8.3125 12.5 7.28125 13.6875C7.53125 13.6562 7.76562 13.6094 7.98438 13.5469C8.23438 13.4531 8.82812 13.0625 9.76562 12.375C10.7031 11.6562 11.1875 11.3125 11.2188 11.3438L11.5 9.75C11.1875 9.9375 11 10.0938 10.9375 10.2188L10.6562 11.1562L10.4688 11.3906C9.875 11.0156 9.54688 10.7344 9.48438 10.5469C9.42188 10.3594 9.35938 10.1719 9.29688 9.98438C9.26562 9.79688 9.23438 9.60938 9.20312 9.42188C9.20312 9.23438 9.29688 8.95312 9.48438 8.57812C9.67188 8.17188 10.0469 7.8125 10.6094 7.5C11.2031 7.15625 11.5781 6.875 11.7344 6.65625C11.3906 6.78125 11.0469 6.84375 10.7031 6.84375C10.3906 6.8125 10.125 6.73438 9.90625 6.60938C9.6875 6.48438 9.5625 6.39062 9.53125 6.32812L9.25 5.8125L9.10938 5.76562C8.89062 6.39062 8.71875 6.79688 8.59375 6.98438C8.46875 7.14062 8.28125 7.35938 8.03125 7.64062C7.78125 7.92188 7.60938 8.09375 7.51562 8.15625L6.85938 8.57812L6.76562 8.71875ZM10.75 8.90625C11.1875 8.84375 11.4531 8.73438 11.5469 8.57812C11.6719 8.39062 11.7188 8.21875 11.6875 8.0625L11.6406 7.82812C11.2344 8.10938 11.0156 8.29688 10.9844 8.39062L10.75 8.90625ZM13.2812 10.0312L13.1875 9.04688L13.7969 9.5625L13.2812 10.0312ZM13.6094 12.2344L15.6719 11.8125L14.875 11.0625C14.5 11.2812 14.2188 11.5625 14.0312 11.9062L13.6094 12.2344ZM13.5625 8.90625L13.9844 9.42188L14.875 8.71875C14.75 8.59375 14.5156 8.57812 14.1719 8.67188C13.8281 8.73438 13.625 8.8125 13.5625 8.90625ZM13.6094 5.90625H13.7031L13.8438 5.85938H13.8906L13.9375 5.8125L14.0312 5.76562L14.125 5.71875V5.67188H13.9375H13.8438L13.7031 5.76562L13.6562 5.8125H13.6094V5.90625ZM26.5 8.29688C26.625 8.14062 26.7656 8.01562 26.9219 7.92188C27.1094 7.79688 27.2812 7.79688 27.4375 7.92188C27.5938 8.01562 27.6562 8.07812 27.625 8.10938L27.2969 8.625L28.0938 9.75C28.25 9.90625 28.3594 10 28.4219 10.0312C28.4844 10.0312 28.6562 9.96875 28.9375 9.84375L29.4062 9.75L30.1094 9.375L30.7188 9.04688V6.32812L30.625 6.23438C30.2812 6.54688 29.8125 6.79688 29.2188 6.98438C29.1562 6.95312 29.125 6.9375 29.125 6.9375C29.1562 6.90625 29.2031 6.875 29.2656 6.84375C29.3594 6.8125 29.5156 6.6875 29.7344 6.46875L30.625 5.67188L31.2344 4.92188L31.6094 4.54688C30.8281 3.98438 30.2656 3.48437 29.9219 3.04688C29.6094 2.57812 29.4688 2.28125 29.5 2.15625V2.01562C29.7188 2.35937 29.9062 2.5625 30.0625 2.625C30.2188 2.65625 30.4375 2.65625 30.7188 2.625C30.8125 2.625 31.375 2.5 32.4062 2.25C33.4688 2 34.1406 1.85938 34.4219 1.82812C34.6719 1.82812 34.875 1.85938 35.0312 1.92188L35.9219 2.57812L36.2969 2.76562C36.2969 2.79688 36.4219 3.03125 36.6719 3.46875C36.9219 3.875 37.0469 4.09375 37.0469 4.125C37.0781 4.15625 37.0625 4.23437 37 4.35938C36.8125 4.67188 36.625 4.75 36.4375 4.59375C36.2188 4.71875 36 4.79687 35.7812 4.82812C35.5625 4.85938 35.3125 4.9375 35.0312 5.0625C34.7812 5.15625 34.5312 5.14063 34.2812 5.01562C34.0625 5.23438 33.9062 5.35937 33.8125 5.39062C33.7188 5.39062 33.5938 5.39062 33.4375 5.39062C33.2812 5.35937 32.8281 5.45312 32.0781 5.67188C31.3281 5.89063 30.9219 6.0625 30.8594 6.1875C30.9531 6.34375 31.0469 6.45312 31.1406 6.51562L31.8906 7.03125L32.5938 8.01562L35.0781 7.40625C34.8281 7.15625 34.6406 6.96875 34.5156 6.84375L34.0469 6.5625L33.6719 6.1875C33.4219 6.03125 33.3125 5.92187 33.3438 5.85938V5.76562C33.5625 5.73437 33.75 5.71875 33.9062 5.71875C34.0625 5.6875 34.4688 5.85938 35.125 6.23438L35.6875 6.51562L36.625 7.3125H37.3281C37.3906 7.3125 37.6406 7.39062 38.0781 7.54688L38.8281 7.73438L40.375 8.29688C40.7188 8.42188 40.9375 8.5 41.0312 8.53125L41.5938 9L42.2031 9.32812C42.2344 9.39062 42.3594 9.54688 42.5781 9.79688C42.8281 10.0469 42.9688 10.25 43 10.4062C43.0625 10.5312 43.0938 10.7969 43.0938 11.2031C43.125 11.5781 42.9062 12.3281 42.4375 13.4531C41.8438 14.7656 41.3438 15.625 40.9375 16.0312C40.5625 16.4375 40.2812 16.7656 40.0938 17.0156L39.8594 16.9219C39.5156 17.2656 39.1406 17.5156 38.7344 17.6719C38.3281 17.7969 38.0781 17.8438 37.9844 17.8125L37.5156 17.7656L37.0938 17.9531H36.9531H36.7188V17.8125C36.5312 17.9375 36.3594 17.9375 36.2031 17.8125C36.0469 17.9375 35.9375 18 35.875 18C35.8125 17.9688 35.5781 17.75 35.1719 17.3438C35.1094 17 34.9531 16.8125 34.7031 16.7812C34.4531 16.7188 34 16.8438 33.3438 17.1562C32.6875 17.4375 31.8594 17.5156 30.8594 17.3906L31 17.8594C30.875 17.9531 30.7812 18 30.7188 18L29.3594 17.3438L28.9844 17.2031C28.6719 17.1094 28.2969 16.7812 27.8594 16.2188C27.4219 15.625 27.1875 15.2344 27.1562 15.0469L26.6875 13.3594L26.5 13.2188C26.5 13.1875 26.5 13.1562 26.5 13.125L26.4062 12.8438C26.375 12.8438 26.3594 12.8125 26.3594 12.75C26.3906 12.6562 26.4062 12.5625 26.4062 12.4688C26.375 12.4375 26.3281 12.2656 26.2656 11.9531C26.2344 11.6406 26.2188 11.2188 26.2188 10.6875C26.2188 9.96875 26.25 9.46875 26.3125 9.1875L26.5 8.29688ZM29.2188 15.8906C29.4375 16.0781 29.6719 16.3594 29.9219 16.7344H30.1562C30.125 16.4531 30.1094 16.2344 30.1094 16.0781C30.1406 15.9219 30.1562 15.8281 30.1562 15.7969L30.0156 15.1406C30.1406 15.1094 30.25 15.0781 30.3438 15.0469H31.0938C31.1562 15.0469 31.2812 15 31.4688 14.9062C31.6562 14.8125 31.7656 14.7344 31.7969 14.6719L31.3281 13.875C31.2969 13.8438 31.2656 13.75 31.2344 13.5938L30.9531 12.6094C30.9219 12.4531 30.875 12.3281 30.8125 12.2344L30.8594 11.7188C30.4844 11.625 30.1406 11.4844 29.8281 11.2969C29.5156 11.1094 29.2344 10.9688 28.9844 10.875C28.7656 10.7812 28.5938 10.5938 28.4688 10.3125H28.2812C28.2188 10.4688 28.2188 10.5781 28.2812 10.6406C28.375 10.7031 28.4375 10.8594 28.4688 11.1094V12.7031C28.5 13.3594 28.5781 13.8594 28.7031 14.2031L29.2188 15.8906ZM33.1562 13.5C33.2812 13.4062 33.375 13.3281 33.4375 13.2656L34.2344 11.8594C34.3594 11.6406 34.4375 11.5156 34.4688 11.4844L34.6562 10.6875C34.7188 10.4375 34.75 10.2969 34.75 10.2656V10.1719C33.7812 10.5781 33.2656 10.8125 33.2031 10.875C33.1406 10.9375 33.0781 11.0312 33.0156 11.1562C32.9844 11.2812 32.9531 11.3906 32.9219 11.4844C32.9219 11.5469 32.9688 11.75 33.0625 12.0938L33.1094 12.8438L33.1562 13.5ZM35.7344 14.5312C35.7656 14.5 35.8125 14.4688 35.875 14.4375L36.5312 14.625L36.625 14.5781C36.6875 14.6719 36.7344 14.7344 36.7656 14.7656L36.8594 15L37.1875 15.3281C37.9375 14.6094 38.3438 14.1406 38.4062 13.9219C38.5 13.6719 38.6094 13.5156 38.7344 13.4531C38.8906 13.1406 39.1719 12.7031 39.5781 12.1406C39.9844 11.5469 40.2188 11.1406 40.2812 10.9219L40.6562 9.60938C40.4375 9.45312 40.1875 9.3125 39.9062 9.1875C39.6562 9.0625 38.9062 9.07812 37.6562 9.23438C37.5938 10.7344 37.4375 11.6719 37.1875 12.0469L35.7344 14.5312ZM53.2188 6.09375C52.75 6.1875 52.4219 6.26562 52.2344 6.32812L51.2031 6.84375C50.7656 7 50.5469 6.9375 50.5469 6.65625V6.5625L50.4062 6.42188C50.375 6.42188 50.3438 6.35938 50.3125 6.23438C50.3125 6.07812 50.2031 5.79688 49.9844 5.39062C50.3594 4.32812 50.9688 3.46875 51.8125 2.8125C52.6562 2.125 53.0156 1.70312 52.8906 1.54688L52.4688 0.9375V0.75C53.9688 0.9375 54.875 1.34375 55.1875 1.96875C55.5 2.59375 55.6562 2.98438 55.6562 3.14062C55.6875 3.26563 55.6406 3.4375 55.5156 3.65625C55.3906 3.875 54.9219 4.32812 54.1094 5.01562C54.2969 5.26562 54.4688 5.46875 54.625 5.625C54.7812 5.78125 54.875 5.92187 54.9062 6.04688C54.9688 6.14062 55.0156 6.28125 55.0469 6.46875C55.1094 6.65625 55.1562 6.76562 55.1875 6.79688L55.3281 7.125C55.3281 7.21875 55.3281 7.375 55.3281 7.59375C55.3594 7.78125 55.1562 8.26562 54.7188 9.04688C54.3125 9.82812 54.0156 10.4688 53.8281 10.9688C53.6719 11.4375 53.5469 12.1562 53.4531 13.125L53.3125 14.5312C53.2188 15.2188 53.1719 15.6094 53.1719 15.7031L53.7344 19.3125L53.7812 21.0469H53.5938C53.0938 20.6406 52.7344 20.2969 52.5156 20.0156C52.3281 19.7656 52.1875 19.4219 52.0938 18.9844L51.7188 17.4375C51.625 17.1875 51.5781 17.0469 51.5781 17.0156L51.4375 16.2188L51.3438 15.9844V15.1875C51.3125 15.0625 51.2344 14.9844 51.1094 14.9531C51.0156 15.1094 50.9531 15.2031 50.9219 15.2344L50.6406 15.375C50.6094 15.4062 50.5 15.6094 50.3125 15.9844C50.125 16.3281 49.9219 16.4688 49.7031 16.4062C49.5469 16.4062 49.4062 16.3281 49.2812 16.1719C49.1562 16.0156 49.0781 15.6719 49.0469 15.1406C49.0156 14.6094 49.0312 14.25 49.0938 14.0625L49.5625 13.2656L51.5781 9.32812L52.75 7.17188C52.9375 6.79688 53.0938 6.4375 53.2188 6.09375ZM57.5781 5.10938C57.1094 4.64062 56.8594 4.32812 56.8281 4.17188L56.5 3.32812C56.5938 3.42188 56.6719 3.48437 56.7344 3.51562L57.3906 4.35938C57.4844 4.48438 57.6094 4.5625 57.7656 4.59375C57.9219 4.59375 58.5625 4.40625 59.6875 4.03125C59.7188 3.96875 59.7656 3.92188 59.8281 3.89062L60.25 3.75L60.5312 3.46875C61.0312 3.84375 61.6562 4.14062 62.4062 4.35938V4.64062C62.6875 4.85938 62.8281 5.01562 62.8281 5.10938V5.25C62.9219 5.375 62.9844 5.4375 63.0156 5.4375L63.0625 5.71875C62.4375 5.78125 61.8281 5.89063 61.2344 6.04688C60.6719 6.20312 60.3281 6.28125 60.2031 6.28125C60.0469 6.3125 59.8281 6.28125 59.5469 6.1875C59.2656 6.09375 59.0781 6.04688 58.9844 6.04688C58.7344 6.07812 58.5156 6.1875 58.3281 6.375C58.1406 6.53125 58.0312 6.71875 58 6.9375L58.2344 8.20312C58.2344 8.29688 58.2344 8.42188 58.2344 8.57812C58.2031 8.82812 58.1875 9.01562 58.1875 9.14062L58.0469 10.0312V10.2188C58.3906 10.2812 58.5781 10.3438 58.6094 10.4062L58.8438 10.8281L59.5469 11.3906C59.8594 11.2656 60.0938 11.1562 60.25 11.0625L62.0312 9.75C62.8125 9.375 63.7344 9.1875 64.7969 9.1875C65.2031 9.21875 65.625 9.32812 66.0625 9.51562C66.5312 9.67188 66.8594 9.84375 67.0469 10.0312C67.2656 10.1875 67.4531 10.4844 67.6094 10.9219C67.7656 11.3281 67.8438 11.6406 67.8438 11.8594C67.8125 12.1094 67.7188 12.375 67.5625 12.6562C67.4375 12.9375 67.2344 13.1719 66.9531 13.3594C66.7031 13.5156 66.5 13.5156 66.3438 13.3594L66.0625 13.4531C65.875 13.2969 65.6719 13.2188 65.4531 13.2188C64.7969 12.5938 64.2188 12.2188 63.7188 12.0938V11.9062C64.0625 11.9062 64.2188 11.8594 64.1875 11.7656L64.1406 11.625L63.9062 11.7188L63.7188 11.4844C63.6875 11.4531 63.6719 11.4375 63.6719 11.4375C63.7031 11.4062 63.7656 11.3906 63.8594 11.3906C63.9844 11.3594 64.5625 11 65.5938 10.3125V10.0781C65.375 10.0156 65.2188 9.96875 65.125 9.9375L64.5156 10.0312L64.0469 10.0781L63.8594 10.2188L62.875 10.9688C62.8438 11.0312 62.8438 11.125 62.875 11.25L62.4062 11.7656L61.8906 12.3281L61.9844 12.5156C61.7344 12.8594 61.5938 13.1562 61.5625 13.4062C61.9375 13.8125 62.375 14.2812 62.875 14.8125C63.375 15.3438 63.7812 15.7188 64.0938 15.9375L64.1406 16.5469C64.2344 16.6094 64.2969 16.6406 64.3281 16.6406L64.4688 17.0156L64.7031 17.2031V17.3438C64.4531 17.5312 63.8594 17.7812 62.9219 18.0938C61.9844 18.4062 61.4375 18.5625 61.2812 18.5625L60.3906 18.5156L59.4531 18.6562C58.7344 18.6875 58.2969 18.6562 58.1406 18.5625C57.9844 18.5 57.6719 18.2812 57.2031 17.9062C56.7656 17.5 56.4375 17.125 56.2188 16.7812C56.0312 16.4375 55.8594 16.0938 55.7031 15.75C55.5781 15.4062 55.5312 14.9375 55.5625 14.3438C55.5625 13.9062 55.6094 13.375 55.7031 12.75C55.7969 12.0938 55.8594 11.6094 55.8906 11.2969C55.9219 10.9844 55.9688 10.75 56.0312 10.5938L56.1719 10.2656C56.1719 10.2656 56.1562 10.0312 56.125 9.5625C56.125 9.0625 56.2031 8.57812 56.3594 8.10938C56.5781 7.29688 56.7344 6.71875 56.8281 6.375C56.9219 6 57.0156 5.76562 57.1094 5.67188L57.5781 5.10938ZM57.625 16.7344C58.875 16.6406 60.2344 16.2812 61.7031 15.6562C61.6406 15.375 61.5938 15.1562 61.5625 15L61.2344 14.4375L60.9062 13.875C60.5938 14 60.375 14.0469 60.25 14.0156C60.1562 13.9531 60.0781 13.8906 60.0156 13.8281L59.6406 13.5938L58.8438 13.1719L58.1406 12.4688L57.9531 12.4219C57.7344 13.6719 57.6094 14.3438 57.5781 14.4375L57.2969 15.2344C57.2656 15.3281 57.2188 15.5312 57.1562 15.8438C57.125 16.1562 57.1875 16.3594 57.3438 16.4531L57.625 16.7344ZM59.2656 11.5312L58.6094 10.9219C58.5469 11.0156 58.5156 11.0781 58.5156 11.1094C58.5469 11.1406 58.625 11.2656 58.75 11.4844C58.9062 11.6719 59.0156 11.7344 59.0781 11.6719L59.2656 11.5312ZM77.0781 1.54688C76.9219 1.39063 76.7812 1.26562 76.6562 1.17188C76.5312 1.04687 76.4531 0.9375 76.4219 0.84375C76.5781 0.84375 76.75 0.796875 76.9375 0.703125C77.125 0.609375 77.3125 0.546875 77.5 0.515625C77.7812 0.515625 78.2344 0.671875 78.8594 0.984375C79.4844 1.29688 79.9062 1.5625 80.125 1.78125C80.3438 2 80.5 2.23438 80.5938 2.48438C80.6875 2.73437 80.7344 2.95312 80.7344 3.14062C80.7656 3.32812 80.75 3.42188 80.6875 3.42188H80.5469C80.5156 3.45313 80.5 3.51562 80.5 3.60938C80.5312 3.67187 80.4531 3.76562 80.2656 3.89062C80.1719 3.95312 80.0156 4.125 79.7969 4.40625C79.5781 4.65625 79.3594 4.85938 79.1406 5.01562C78.9531 5.14063 78.8594 5.28125 78.8594 5.4375C78.9531 5.34375 79.0312 5.28125 79.0938 5.25C79.1562 5.21875 79.3281 5.20312 79.6094 5.20312C79.9219 5.17187 80.2656 5.09375 80.6406 4.96875C81.0469 4.84375 81.5312 4.67188 82.0938 4.45312C82.6875 4.20313 83.1719 4.07812 83.5469 4.07812C83.9531 4.04687 84.2031 4.01563 84.2969 3.98438C84.3906 3.95312 84.5625 3.8125 84.8125 3.5625C85.0625 3.3125 85.1719 3.14062 85.1406 3.04688C85.1406 2.92187 85.0781 2.82812 84.9531 2.76562C84.8594 2.67188 84.5781 2.60938 84.1094 2.57812C83.6406 2.54687 83.3281 2.48438 83.1719 2.39062L82.1406 1.78125L81.7188 1.64062V1.40625C82.5 1.125 83.0938 1 83.5 1.03125C83.9375 1.03125 84.5469 1.1875 85.3281 1.5C86.1406 1.78125 86.6562 2.0625 86.875 2.34375C87.0938 2.59375 87.2344 2.8125 87.2969 3L87.5312 3.84375C87.5312 3.875 87.75 3.9375 88.1875 4.03125C88.625 4.09375 89.1719 4.39063 89.8281 4.92188C90.4844 5.45312 90.8594 5.84375 90.9531 6.09375C90.7656 6.3125 90.6406 6.42188 90.5781 6.42188L89.5938 6.04688C89.1562 5.92187 88.7188 5.89063 88.2812 5.95312C88.1875 5.98438 88 5.98438 87.7188 5.95312C87.4375 5.92187 87.25 5.90625 87.1562 5.90625C87 5.9375 86.4219 6.125 85.4219 6.46875L84.2031 6.89062L83.1719 7.54688V7.73438C84.3594 7.54688 85.0781 7.45312 85.3281 7.45312C85.6094 7.42188 86.0625 7.5 86.6875 7.6875C87.3125 7.875 87.8906 8.17188 88.4219 8.57812V8.8125C88.1719 8.875 88 8.90625 87.9062 8.90625L87.2031 9.09375L86.4062 9.1875C86.25 9.21875 85.6406 9.4375 84.5781 9.84375C83.5156 10.25 82.9375 10.5 82.8438 10.5938C82.7812 10.6875 82.7344 10.7812 82.7031 10.875C83.3281 10.6875 83.8125 10.5625 84.1562 10.5L86.0312 10.2656C86.4375 10.1406 86.6875 10.0938 86.7812 10.125C86.875 10.125 87.1406 10.2188 87.5781 10.4062C88.0469 10.5938 88.3125 10.7031 88.375 10.7344L89.1719 11.4844L88.9844 11.6719C88.8594 11.7031 88.75 11.7188 88.6562 11.7188C88.5625 11.6875 88.4844 11.6875 88.4219 11.7188C88.3906 11.7188 88.3125 11.7344 88.1875 11.7656C88.0625 11.7969 87.7031 11.8438 87.1094 11.9062L84.8594 12.375C84.4531 12.4375 84.2188 12.4688 84.1562 12.4688L83.3125 12.8438C83.0938 12.9062 82.7656 12.9062 82.3281 12.8438C82.3594 13.1562 82.3906 13.3281 82.4219 13.3594L82.8906 14.1094C83.6406 13.6406 84.4531 13.3281 85.3281 13.1719C85.8906 12.9844 86.2344 12.9062 86.3594 12.9375L87.4375 13.2188C87.6875 13.25 88.0156 13.3281 88.4219 13.4531C88.8281 13.5469 89.0625 13.5938 89.125 13.5938L89.5469 13.9219L90.2969 14.3438C90.6719 14.625 91.0469 15.25 91.4219 16.2188C91.2656 16.375 91.1562 16.4688 91.0938 16.5L89.8281 17.3438L89.0781 18.0469L88.1875 18.5625V18.8438C88.3438 18.9375 88.5156 19.0469 88.7031 19.1719C88.8906 19.2969 88.9688 19.3906 88.9375 19.4531L88.8906 19.5938C88.7031 19.6875 88.5781 19.7344 88.5156 19.7344H87.9531L87.5312 19.875L86.4062 19.9219L85.75 20.0156L83.9688 20.1562L84.1094 20.5781C83.8906 20.7031 83.6406 20.6406 83.3594 20.3906C82.7031 19.8594 82.3438 19.5469 82.2812 19.4531C82.2188 19.3906 82.1406 19.2812 82.0469 19.125C81.9844 19 81.9062 18.6719 81.8125 18.1406L81.3906 16.5C81.3594 16.4375 81.3438 16.2656 81.3438 15.9844L81.2031 14.2031C81.1719 14.1406 81.1719 14.0781 81.2031 14.0156C81.2031 13.8906 81.25 13.6875 81.3438 13.4062C81.4375 13.125 81.4844 12.9219 81.4844 12.7969L81.3906 12.2344V11.4375L81.2031 10.875C81.2031 10.7812 81.2344 10.7031 81.2969 10.6406C81.3594 10.5781 81.5156 10.5156 81.7656 10.4531C82.0469 10.3594 82.3281 10.1719 82.6094 9.89062C82.1719 9.70312 81.9219 9.5 81.8594 9.28125L81.7656 9L81.6719 8.76562C81.6406 8.70312 81.6562 8.5 81.7188 8.15625C81.75 7.9375 81.7812 7.79688 81.8125 7.73438C81.8438 7.64062 82.0156 7.53125 82.3281 7.40625C82.6719 7.25 83.5625 6.76562 85 5.95312C84.3438 6.07812 83.5781 6.28125 82.7031 6.5625C81.8594 6.84375 81.1094 6.96875 80.4531 6.9375C79.7969 6.90625 79.2188 6.4375 78.7188 5.53125C78.625 5.75 78.5156 5.96875 78.3906 6.1875L78.3438 6.70312L78.25 7.03125L78.3438 7.54688C78.3125 7.57812 78.2812 7.65625 78.25 7.78125L78.1562 8.95312C78.0938 9.17188 78.0625 9.29688 78.0625 9.32812C78.0938 9.32812 78.125 9.375 78.1562 9.46875L78.25 9.79688C78.125 10.7031 78.0625 11.3438 78.0625 11.7188C78.0312 11.7812 78.0156 11.875 78.0156 12C78.0469 12.125 78.0625 12.2031 78.0625 12.2344L77.9688 12.7969L77.9219 14.0625L77.8281 14.5312V15.5625C77.7969 15.6875 77.7656 15.9062 77.7344 16.2188C77.7031 16.5312 77.6719 16.9062 77.6406 17.3438C77.6094 17.7812 77.6562 18.25 77.7812 18.75C77.9375 19.25 78.0312 19.5312 78.0625 19.5938L77.9688 20.7656C77.9375 21.2031 77.8281 21.4062 77.6406 21.375C77.2031 20.875 76.9531 20.4531 76.8906 20.1094L76.5156 18.4688C76.4531 18.4062 76.4062 18.3594 76.375 18.3281C76.375 18.2969 76.3594 18.0938 76.3281 17.7188L76.1406 16.875L76.0938 15.9844L76 15.75C75.9375 15.6562 75.9219 15.4219 75.9531 15.0469V13.6406L76.0469 13.1719L76.0938 11.4844C76.0938 11.3594 76.125 11.0781 76.1875 10.6406C76.2812 10.2031 76.3125 9.82812 76.2812 9.51562C76.2812 9.17188 76.3125 8.96875 76.375 8.90625C76.4375 8.8125 76.4688 8.75 76.4688 8.71875L76.2812 8.48438C76.1875 8.70312 76.125 8.84375 76.0938 8.90625C76.0625 8.9375 75.9531 9.07812 75.7656 9.32812C75.5781 9.57812 75.3281 9.95312 75.0156 10.4531C74.7344 10.9531 74.5469 11.4375 74.4531 11.9062C74.2656 11.9688 74.1719 12.0938 74.1719 12.2812H73.9844C73.8906 12.1562 73.8281 12.0469 73.7969 11.9531L73.0469 11.1562L73 10.9219L72.7656 10.3594C72.7344 10.2656 72.7188 10.125 72.7188 9.9375C72.7188 9.53125 72.8125 9.125 73 8.71875C73.1875 8.28125 73.4688 7.75 73.8438 7.125C74.25 6.5 74.4219 6.23438 74.3594 6.32812L76.3281 3.42188L76.8438 2.95312L77.5469 2.10938C77.6719 1.98437 77.7344 1.875 77.7344 1.78125C77.7031 1.75 77.6875 1.71875 77.6875 1.6875H77.3594C77.1719 1.625 77.0781 1.57813 77.0781 1.54688ZM83.5938 17.7656C84.0938 17.4531 84.625 17.125 85.1875 16.7812C85.75 16.4375 86.125 16.1875 86.3125 16.0312L86.8281 15.5625L87.5312 15L87.9062 14.5312C86.5938 14.9375 85.7188 15.3125 85.2812 15.6562C84.8438 16 84.625 16.1562 84.625 16.125L83.1719 15.5156L83.0312 15.5625C83.0312 15.625 83.0469 15.6719 83.0781 15.7031L83.2188 16.875L83.5938 17.7656ZM102.391 7.07812C102.328 7.01562 102.266 6.96875 102.203 6.9375C102.141 6.90625 101.938 6.875 101.594 6.84375C101.25 6.8125 100.984 6.70312 100.797 6.51562L100.141 5.90625C99.8906 5.75 99.7969 5.64062 99.8594 5.57812L99.9062 5.48438C100.062 5.60938 100.172 5.6875 100.234 5.71875C100.297 5.71875 100.547 5.625 100.984 5.4375L103.984 4.21875L105.531 3.9375C106.156 3.78125 106.688 3.375 107.125 2.71875L106.938 2.57812C106.844 2.57812 106.781 2.57812 106.75 2.57812L105.906 2.95312L105.578 3.04688L105.391 3.14062C105.328 3.17188 105.203 3.17188 105.016 3.14062C104.859 3.07813 104.656 3.03125 104.406 3C104 3 103.297 2.29688 102.297 0.890625H102.578C102.703 1.10938 102.812 1.23437 102.906 1.26562L104.5 0.65625C104.562 0.65625 104.719 0.640625 104.969 0.609375C105.219 0.546875 105.391 0.515625 105.484 0.515625C105.578 0.484375 105.656 0.453125 105.719 0.421875L106.281 0.609375L106.797 0.65625C107.391 0.75 107.922 1.15625 108.391 1.875C108.891 2.5625 109.156 3.0625 109.188 3.375V3.51562L109.094 3.79688L109.188 3.89062C109.281 3.82813 109.344 3.79688 109.375 3.79688C109.438 3.76562 109.75 3.89062 110.312 4.17188C110.906 4.45312 111.234 4.60937 111.297 4.64062L112 5.39062L111.953 5.48438C111.203 5.51563 110.469 5.57812 109.75 5.67188L109.562 5.48438C109.188 5.45312 108.594 5.46875 107.781 5.53125C107 5.5625 106.391 5.65625 105.953 5.8125L105.297 6.23438L104.969 6.375V6.5625C104.719 6.65625 104.625 6.71875 104.688 6.75L104.781 6.89062L104.406 7.26562C104.438 7.39062 104.453 7.48438 104.453 7.54688C104.484 7.60938 104.438 7.75 104.312 7.96875C104.188 8.1875 104 8.64062 103.75 9.32812C103.5 10.0156 103.312 10.6094 103.188 11.1094C103.062 11.6094 102.984 11.9062 102.953 12C102.953 12.0938 103.203 12.5625 103.703 13.4062C103.797 13.6562 103.906 13.9219 104.031 14.2031L104.266 15.0469C104.328 15.3281 104.406 15.5312 104.5 15.6562L104.828 16.1719L104.969 16.6875C104.844 16.75 104.562 16.7344 104.125 16.6406C103.719 16.5156 103.453 16.4219 103.328 16.3594C103.203 16.2656 103.016 16.0312 102.766 15.6562C102.516 15.2812 102.359 15 102.297 14.8125C102.203 14.875 102.141 14.9219 102.109 14.9531C102.078 14.9844 102.031 15.0938 101.969 15.2812C101.938 15.4688 101.859 15.7344 101.734 16.0781L101.5 16.6875L101.125 17.3438L101.031 17.6719L100.797 18.1406C100.828 18.1719 101.016 18.2031 101.359 18.2344C101.703 18.2969 102.688 18.0781 104.312 17.5781C104.281 17.5156 104.266 17.4531 104.266 17.3906C104.297 17.3281 104.594 17.1406 105.156 16.8281L106.141 15.7969L106.188 15.75L106.938 15C107.188 14.9688 107.422 14.8125 107.641 14.5312L108.484 13.6406C108.766 13.3281 109.078 12.9062 109.422 12.375C109.766 11.8125 109.938 11.3906 109.938 11.1094V10.6875C109.438 10.375 109.047 10.2188 108.766 10.2188C108.141 10.25 107.734 10.4531 107.547 10.8281C107.391 11.1719 107.328 11.4062 107.359 11.5312C107.359 11.5938 107.391 11.7344 107.453 11.9531C107.516 12.1719 107.547 12.3125 107.547 12.375C107.516 12.4375 107.453 12.5312 107.359 12.6562C107.297 12.7812 107.25 12.8438 107.219 12.8438C107.188 12.875 107.031 12.8281 106.75 12.7031L106.141 12.6562C105.641 12.5938 104.969 11.875 104.125 10.5C104.219 10.4375 104.359 10.4531 104.547 10.5469L105.062 10.7812C105.5 11 105.75 11.125 105.812 11.1562C105.875 11.1562 106.125 10.9531 106.562 10.5469C107 10.1719 107.688 9.96875 108.625 9.9375C110.625 9.9375 111.828 10.25 112.234 10.875C112.641 11.5 112.859 11.875 112.891 12C112.922 12.125 112.797 12.4375 112.516 12.9375L111.812 14.4375C111.469 15 110.891 15.6875 110.078 16.5L110.172 16.5938C110.266 16.5625 110.359 16.5312 110.453 16.5L111.25 16.5938C111.531 16.5938 111.688 16.5938 111.719 16.5938L112 16.7344C112 16.7656 112.188 16.7812 112.562 16.7812C112.938 16.75 113.266 16.7969 113.547 16.9219L114.062 17.25C114.281 17.375 114.391 17.4531 114.391 17.4844C114.422 17.4844 114.453 17.5469 114.484 17.6719C114.547 17.7969 114.641 17.8906 114.766 17.9531L115.141 18.1875L115.234 18.375L115.469 18.6094C115.031 18.8594 114.672 18.9688 114.391 18.9375C114.297 18.9375 114.188 18.9219 114.062 18.8906L112 18.4688L110.453 18.5625C110.234 18.5938 109.781 18.5938 109.094 18.5625C108.438 18.5625 108.062 18.5625 107.969 18.5625C107.75 18.5938 107.109 18.7812 106.047 19.125C105.016 19.4688 104.203 19.625 103.609 19.5938C102.703 19.5938 102.109 19.4688 101.828 19.2188L100.656 18.375C100 19.25 99.3281 19.9531 98.6406 20.4844L98.4531 20.25C98.0156 20.5312 97.6719 20.7969 97.4219 21.0469C97.1719 21.2969 96.9531 21.3594 96.7656 21.2344L96.3906 21.5156L96.2969 21.375C96.2969 21.375 96.2969 21.3281 96.2969 21.2344L97.1406 20.3906L98.1719 18.1875C98.1094 18.2812 98.0156 18.5156 97.8906 18.8906L99.25 15.375C99.625 14.4375 99.8438 13.8594 99.9062 13.6406L100.141 12.8438L100.984 10.4531L101.312 9.51562C101.5 8.98438 101.859 8.17188 102.391 7.07812ZM122.031 17.9062L122.453 18.8438H122.688C122.906 18.5 123.062 18.2344 123.156 18.0469C123.25 17.8594 123.375 17.375 123.531 16.5938C123.719 15.8125 123.828 15.375 123.859 15.2812L124.328 12.1875L124.375 11.1094L124.797 7.82812C124.922 6.82812 124.984 6.3125 124.984 6.28125L124.516 4.92188L124.422 4.59375C124.516 4.65625 124.594 4.70312 124.656 4.73438L125.266 5.48438L126.109 6.1875C126.391 6.46875 126.688 6.95312 127 7.64062C127.312 7.70312 127.641 7.70312 127.984 7.64062C128.359 7.54688 128.672 7.51562 128.922 7.54688L129.062 7.35938L129.156 6.79688C129.219 6.51562 129.25 6.35938 129.25 6.32812L128.594 4.96875C128.375 5.15625 128.188 5.20312 128.031 5.10938L127.891 5.29688C127.672 5.26562 127.5 5.26562 127.375 5.29688C127.281 5.29688 127.172 5.3125 127.047 5.34375C126.922 5.375 126.844 5.375 126.812 5.34375C126.188 5.3125 125.609 4.95313 125.078 4.26562L125.172 4.125C124.984 4.03125 124.859 3.89062 124.797 3.70312C124.891 3.64063 124.969 3.59375 125.031 3.5625L125.641 3.51562L128.641 2.53125C129.047 2.40625 129.625 2.28125 130.375 2.15625C131.125 2.03125 131.562 1.95313 131.688 1.92188C132.375 1.92188 133.141 2.17187 133.984 2.67188C134.828 3.17188 135.328 3.5 135.484 3.65625C135.641 3.78125 135.984 4.42187 136.516 5.57812L136.281 5.8125H136.047C136.016 5.90625 135.969 6.04688 135.906 6.23438C135.844 6.39062 135.812 6.48438 135.812 6.51562L135.719 7.3125L135.625 7.59375C135.5 7.96875 135.453 8.48438 135.484 9.14062C135.547 9.76562 135.562 10.1875 135.531 10.4062C135.531 10.625 135.547 10.7344 135.578 10.7344L135.719 11.9062L135.812 14.1562L135.906 14.8125L136 15.6094L136.141 16.4062L136.234 17.3906C136.484 18.9531 136.625 19.75 136.656 19.7812V20.4844V21.375L136.469 21.5625C136.188 21.4375 135.938 21.3438 135.719 21.2812C135.531 21.2188 135.422 21.1719 135.391 21.1406C135.359 21.1406 135.266 21.0469 135.109 20.8594L134.312 20.2969C134.031 20.1094 133.641 19.6094 133.141 18.7969C132.672 18.0156 132.375 17.5 132.25 17.25C132.156 16.9688 132.031 16.6094 131.875 16.1719C131.719 15.7344 131.562 15.4219 131.406 15.2344C131.281 15.0156 131.234 14.8906 131.266 14.8594L131.406 14.5781C131.938 15.5156 132.5 16.5156 133.094 17.5781H133.234C133.641 18.2031 134.078 18.6719 134.547 18.9844C134.516 18.6406 134.484 18.375 134.453 18.1875L134.125 17.0625L134.078 16.4062C134.047 16.375 134 16.25 133.938 16.0312C133.906 15.8125 133.875 15.5781 133.844 15.3281C133.844 15.0469 133.828 14.8438 133.797 14.7188L133.703 14.4375L133.656 13.8281C133.531 13.5156 133.344 13.4375 133.094 13.5938C132.406 13.4688 131.719 13.4688 131.031 13.5938C130.906 13.75 130.828 13.875 130.797 13.9688C130.766 14.0625 130.75 14.2344 130.75 14.4844C130.781 14.7031 130.75 15.125 130.656 15.75C130.594 16.3438 130.516 16.7812 130.422 17.0625C130.328 17.3125 130.297 17.4375 130.328 17.4375V17.8125L130.047 18C130.016 18.2188 129.922 18.3281 129.766 18.3281C129.641 18.3594 129.516 18.2969 129.391 18.1406C129.203 18.0156 129.047 17.6562 128.922 17.0625C128.828 16.4375 128.766 15.9219 128.734 15.5156C128.734 15.1094 128.703 14.8438 128.641 14.7188C128.609 14.5938 128.562 14.5312 128.5 14.5312C128.438 14.5 128.266 14.5938 127.984 14.8125L127.422 15.0938C127.047 15.2812 126.797 15.3906 126.672 15.4219C126.578 15.4219 126.484 15.3438 126.391 15.1875C126.266 15.2812 126.172 15.3594 126.109 15.4219C126.047 15.4844 126 15.7031 125.969 16.0781C125.938 16.4531 125.875 16.7344 125.781 16.9219L125.5 17.3438L125.266 18L124.422 19.0781C124.234 19.3594 124.125 19.5156 124.094 19.5469L123.719 19.7344L123.156 20.1094C122.656 20.1406 122.344 20.0625 122.219 19.875C122.125 19.7188 122.062 19.5938 122.031 19.5C122.031 19.4375 122.031 19.2812 122.031 19.0312C122.062 18.7812 122.031 18.5156 121.938 18.2344L121.844 18L122.031 17.9062ZM126.578 12.0938L126.719 12.0469C127.25 11.5156 127.703 11.0938 128.078 10.7812C128.453 10.4375 128.672 10.1719 128.734 9.98438C128.797 9.79688 128.828 9.67188 128.828 9.60938L128.734 9.04688C127.984 9.10938 127.328 8.98438 126.766 8.67188L126.625 8.85938L126.578 12.0938ZM130.984 7.35938C131.703 7.17188 132.453 7.4375 133.234 8.15625C133.297 8.25 133.359 8.26562 133.422 8.20312C133.391 7.20312 133.391 6.42188 133.422 5.85938C133.484 5.29688 133.516 4.84375 133.516 4.5C133.547 4.125 133.578 3.90625 133.609 3.84375L133.75 3.375C133.656 3.28125 133.547 3.20312 133.422 3.14062C133.328 3.07813 132.906 3.15625 132.156 3.375C131.438 3.59375 131.047 3.71875 130.984 3.75L130.188 4.21875C129.781 4.40625 129.609 4.51562 129.672 4.54688L129.812 4.73438L129.672 4.875V4.92188L130.328 6L130.984 7.35938ZM131.031 11.3438C131.219 11.4688 131.391 11.5312 131.547 11.5312C131.703 11.5 131.797 11.4844 131.828 11.4844L132.109 11.8125L132.906 12.0469L133.516 12.4219C133.484 11.9844 133.469 11.6406 133.469 11.3906L133.422 10.875C133.391 10.7188 133.391 10.5156 133.422 10.2656L133.469 9.28125C133.469 9.21875 133.453 9.14062 133.422 9.04688C133.422 8.92188 133.391 8.8125 133.328 8.71875L132.672 9.375C132.672 9.5 132.656 9.59375 132.625 9.65625C132.625 9.71875 132.578 9.78125 132.484 9.84375L131.031 10.7812C130.969 10.9062 130.969 11.0938 131.031 11.3438ZM146.734 5.4375C146.766 5.34375 146.797 5.28125 146.828 5.25C146.891 5.1875 147.641 4.70312 149.078 3.79688C150.922 2.67188 152.984 1.875 155.266 1.40625L155.406 1.17188C155.125 1.01563 154.953 0.828125 154.891 0.609375C154.984 0.578125 155.109 0.59375 155.266 0.65625C155.422 0.71875 155.609 0.796875 155.828 0.890625C156.078 0.953125 156.234 1.01563 156.297 1.07812C156.391 1.14062 156.469 1.1875 156.531 1.21875L156.672 1.40625L157.188 1.64062C157.312 1.73438 157.469 1.92188 157.656 2.20312C157.875 2.45312 158.016 2.64062 158.078 2.76562L158.172 3.1875C158.266 3.53125 158.297 3.76562 158.266 3.89062C158.266 4.01563 158.141 4.15625 157.891 4.3125L155.828 4.45312L155.547 4.54688L155.078 4.45312L154.75 4.54688L154.375 4.59375C154.312 4.71875 154.281 4.79687 154.281 4.82812L154.469 5.4375L154.562 6.28125C154.25 6.375 154.047 6.45312 153.953 6.51562L153.062 7.26562L152.453 7.64062L151.75 8.20312V8.4375L152.875 8.67188C153.188 8.26562 153.453 7.96875 153.672 7.78125L154.234 7.3125C154.266 7.28125 154.391 7.125 154.609 6.84375C154.828 6.5625 155.094 6.29688 155.406 6.04688C155.719 5.79688 155.891 5.57812 155.922 5.39062V5.29688C155.922 5.26562 155.906 5.23438 155.875 5.20312C155.875 5.14063 155.906 5.10938 155.969 5.10938C156.188 5.32813 156.359 5.48438 156.484 5.57812L157 6.1875C157.312 6.5625 157.484 6.78125 157.516 6.84375C157.547 6.875 157.656 7.125 157.844 7.59375L157.75 8.0625C157.281 8.15625 156.859 8.32812 156.484 8.57812V8.76562C157.016 9.35938 157.562 9.90625 158.125 10.4062C158.719 10.9062 159.062 11.2969 159.156 11.5781C159.25 11.8594 159.297 12.125 159.297 12.375C159.328 12.5938 159.328 12.7656 159.297 12.8906C159.297 12.9844 159.266 13.125 159.203 13.3125C159.141 13.5 159.125 13.6094 159.156 13.6406L159.203 14.0156L159.016 14.2031C158.516 13.9844 158.188 13.7812 158.031 13.5938L157.703 13.1719C157.422 12.8906 156.953 12.8281 156.297 12.9844C155.641 13.1406 155.062 13.375 154.562 13.6875C154.656 13.9688 154.719 14.1719 154.75 14.2969L154.844 15.0469L154.938 15.3281C155.438 15.2031 155.859 15.1406 156.203 15.1406C157.828 15.2344 158.969 15.7188 159.625 16.5938C160.312 17.4375 160.688 18 160.75 18.2812V18.8906V19.4531C160.656 20.0469 160.078 20.3125 159.016 20.25L158.828 19.9688C158.609 19.9688 158.438 19.9531 158.312 19.9219C158.188 19.8906 158.031 19.7969 157.844 19.6406C157.656 19.5156 157.375 19.375 157 19.2188L156.344 18.8906C156.031 18.7969 155.812 18.6719 155.688 18.5156C155.844 18.4219 156.25 18.25 156.906 18C157.594 17.7812 158.094 17.5 158.406 17.1562C158.75 16.7812 158.469 16.3281 157.562 15.7969C157.344 15.7031 157 15.625 156.531 15.5625C156.094 15.4688 155.875 15.4062 155.875 15.375L155.5 15.4688L154.891 15.5625C154.891 15.6562 154.875 15.75 154.844 15.8438C154.844 15.9062 154.859 15.9375 154.891 15.9375L155.078 16.8281C155.078 16.9531 155.078 17.1094 155.078 17.2969C155.109 17.4844 155.125 17.6094 155.125 17.6719L155.078 18V18.8438L154.984 19.3125L154.891 20.2031L154.703 20.6719C154.547 20.7344 154.438 20.7812 154.375 20.8125L154.047 21.1406C153.859 21.3281 153.656 21.3594 153.438 21.2344C153.25 21.1094 152.969 20.7656 152.594 20.2031C152.25 19.6719 151.766 19.0625 151.141 18.375C150.984 18.4375 150.906 18.4844 150.906 18.5156L151 19.0312C150.969 19.0938 150.891 19.1719 150.766 19.2656C150.672 19.3594 150.469 19.6406 150.156 20.1094C149.844 20.6094 149.547 20.8594 149.266 20.8594C149.016 20.8906 148.734 20.75 148.422 20.4375C148.109 20.1875 147.891 19.9531 147.766 19.7344C147.672 19.5156 147.641 19.1406 147.672 18.6094C147.672 17.8906 147.734 17.4219 147.859 17.2031L148.562 15.7031C148.031 15.2344 147.75 14.8594 147.719 14.5781L147.672 14.0625L147.531 13.5938C147.5 13.5625 147.5 13.5312 147.531 13.5C147.531 13.4375 147.562 13.3906 147.625 13.3594H147.766C147.766 13.3594 148.047 13.1562 148.609 12.75L149.922 11.5312C150.266 11.2812 150.438 11.0781 150.438 10.9219C150.406 10.7656 150.359 10.6562 150.297 10.5938L149.5 10.9688C149.469 10.9688 149.359 10.9062 149.172 10.7812C149.016 10.6562 148.734 10.5781 148.328 10.5469C147.922 10.4844 147.719 10.3906 147.719 10.2656L147.578 9.70312C148.578 9.42188 149.125 9.23438 149.219 9.14062C149.312 9.01562 149.406 8.84375 149.5 8.625C149.594 8.375 149.875 7.90625 150.344 7.21875C150.844 6.53125 151.234 6.04688 151.516 5.76562C151.828 5.45312 151.969 5.25 151.938 5.15625L151.891 5.0625H151.656C151.562 5.15625 151.484 5.21875 151.422 5.25C151.391 5.25 151.297 5.26562 151.141 5.29688C151.016 5.29688 150.922 5.28125 150.859 5.25L150.391 5.15625C150.328 5.15625 149.906 5.28125 149.125 5.53125C149.031 5.4375 148.969 5.375 148.938 5.34375L148.562 5.39062L148.234 5.34375C148.047 5.34375 147.641 5.46875 147.016 5.71875L146.734 5.4375ZM149.641 17.9062C149.672 17.9062 149.859 17.7969 150.203 17.5781C150.547 17.3594 150.719 17.1719 150.719 17.0156C150.75 16.8594 150.641 16.5625 150.391 16.125C150.141 15.6875 149.953 15.4688 149.828 15.4688C149.703 15.4375 149.547 15.5 149.359 15.6562C149.172 15.7812 149.062 15.9375 149.031 16.125C149.031 16.3125 149.078 16.5156 149.172 16.7344C149.203 16.9219 149.234 17.1719 149.266 17.4844C149.297 17.7969 149.422 17.9375 149.641 17.9062ZM150.203 15.375L151.328 16.8281C151.922 16.6094 152.531 16.2969 153.156 15.8906C153.125 15.5469 153.109 15.2656 153.109 15.0469C153.141 14.8281 153.125 14.6719 153.062 14.5781C153.031 14.4844 152.969 14.3906 152.875 14.2969C152.469 14.4219 151.953 14.6094 151.328 14.8594C150.703 15.1094 150.328 15.2812 150.203 15.375ZM152.688 18.3281H152.922C153.109 17.7344 153.188 17.3281 153.156 17.1094L153.062 16.5C152.75 16.5312 152.484 16.6719 152.266 16.9219C152.047 17.1406 151.922 17.2812 151.891 17.3438C151.859 17.375 151.844 17.4375 151.844 17.5312C151.875 17.625 151.922 17.6875 151.984 17.7188L152.688 18.3281ZM152.078 12.2344C152.922 12.0469 153.594 11.875 154.094 11.7188C154.594 11.5312 154.969 11.4062 155.219 11.3438C155.5 11.2812 156.078 11.2812 156.953 11.3438C156.641 10.7188 156.453 10.25 156.391 9.9375L156.203 9.28125C156.172 9.21875 156.094 9.17188 155.969 9.14062L152.922 11.4844C152.453 11.8594 152.172 12.1094 152.078 12.2344ZM169.281 7.5V6.23438C169.844 5.79688 170.344 5.34375 170.781 4.875H170.922C171.266 4.5 171.625 4.17188 172 3.89062C172.406 3.57812 172.641 3.375 172.703 3.28125L172.844 3H172.516C172.172 2.8125 171.812 2.48438 171.438 2.01562C171.562 1.85938 171.672 1.75 171.766 1.6875C171.859 1.625 172.062 1.60937 172.375 1.64062C172.844 1.70312 173.156 1.76563 173.312 1.82812C173.469 1.89062 173.75 2.0625 174.156 2.34375C174.562 2.59375 174.844 2.79688 175 2.95312C175.188 3.10937 175.297 3.42188 175.328 3.89062C175.328 4.14062 175.312 4.28125 175.281 4.3125L174.766 4.875C174.203 5.40625 173.562 5.96875 172.844 6.5625C172.844 6.65625 172.844 6.71875 172.844 6.75C172.875 6.78125 172.984 6.84375 173.172 6.9375C173.359 7.03125 173.516 7.25 173.641 7.59375C173.797 7.9375 173.875 8.21875 173.875 8.4375C173.906 8.65625 173.891 8.85938 173.828 9.04688C173.797 9.23438 173.281 10.0469 172.281 11.4844L172.844 12.0469C172.938 11.9531 173.016 11.875 173.078 11.8125L173.781 10.8281L174.156 10.4062V10.125L174.484 10.5L174.578 10.4062C174.547 10.4062 174.656 10.2656 174.906 9.98438L175.609 9.28125V9.09375C175.609 9.09375 175.625 9.10938 175.656 9.14062C175.688 9.14062 175.703 9.17188 175.703 9.23438C175.734 9.26562 175.75 9.29688 175.75 9.32812L175.188 10.2188C175.062 10.4062 175 10.6719 175 11.0156L174.859 11.1562L174.719 11.2031C174.688 11.2969 174.734 11.3594 174.859 11.3906V11.25C174.922 11.25 174.969 11.2344 175 11.2031L175.188 10.875L175.328 10.6406L175.188 11.3906L175.75 10.8281C175.719 10.8281 175.688 10.8125 175.656 10.7812C175.656 10.75 175.734 10.6719 175.891 10.5469C176.047 10.4219 176.172 10.2656 176.266 10.0781L177.062 9.04688L177.344 8.625H177.109L176.922 8.76562C176.672 8.60938 176.438 8.5625 176.219 8.625L176.125 8.48438C176.031 8.48438 175.984 8.46875 175.984 8.4375L175.516 8.0625C175.297 7.9375 175.172 7.85938 175.141 7.82812C175.141 7.79688 175.141 7.75 175.141 7.6875L174.812 7.17188C174.719 7.01562 174.656 6.82812 174.625 6.60938C174.625 6.35938 174.734 6.04688 174.953 5.67188C175.203 5.26562 175.594 4.875 176.125 4.5L178 3.28125L178.281 3C177.844 2.71875 177.625 2.54687 177.625 2.48438L176.828 0.9375L177.016 0.984375C177.328 1.39063 177.578 1.625 177.766 1.6875C177.984 1.75 178.234 1.78125 178.516 1.78125L179.359 1.73438L180.391 1.6875C180.422 1.71875 180.594 1.8125 180.906 1.96875C181.25 2.125 181.469 2.25 181.562 2.34375C181.656 2.4375 181.703 2.5625 181.703 2.71875C181.734 2.84375 181.766 2.90625 181.797 2.90625L181.938 3.09375V3.23438C181.531 3.32812 181.047 3.48437 180.484 3.70312L180.203 3.75L179.547 3.9375L178.938 4.03125L178.094 4.40625C177.562 4.65625 177.141 4.89062 176.828 5.10938C176.516 5.32813 176.141 5.8125 175.703 6.5625L175.75 6.75V6.60938H176.125C177.812 5.64062 178.984 5.09375 179.641 4.96875C180.297 4.8125 180.672 4.71875 180.766 4.6875C180.891 4.625 181.453 4.59375 182.453 4.59375C182.547 4.78125 182.656 4.89062 182.781 4.92188C182.938 4.92188 183.078 5.0625 183.203 5.34375C183.328 5.625 183.438 5.8125 183.531 5.90625C183.625 6 183.672 6.0625 183.672 6.09375C183.703 6.125 183.656 6.21875 183.531 6.375C183.406 6.53125 183.328 6.60938 183.297 6.60938H183.016L182.875 6.75H181.703L181.562 6.89062C181.312 6.82812 181.047 6.78125 180.766 6.75V6.89062C180.922 6.92188 181.047 6.9375 181.141 6.9375L182.5 7.875C183.094 8.28125 183.484 8.65625 183.672 9C183.859 9.3125 184.078 9.78125 184.328 10.4062L184.281 10.5469C184.375 10.6719 184.438 10.75 184.469 10.7812L184.234 11.3906V11.5312V11.7188L183.719 12.0469L183.062 11.4844H182.781V11.2969L182.219 11.4375L182.359 11.5781V12.4219L182.219 12.5625C182.188 12.75 182.172 12.8906 182.172 12.9844C182.203 13.0469 182.219 13.0938 182.219 13.125L182.078 13.4062V13.6406V13.875L181.938 14.0156V14.2969L181.797 14.4375C181.766 14.5938 181.75 14.6875 181.75 14.7188L181.656 15C181.594 15.1562 181.578 15.25 181.609 15.2812L181.656 15.8906L181.469 16.0312C181.5 16.25 181.5 16.4062 181.469 16.5C181.469 16.5625 181.453 16.6562 181.422 16.7812C181.391 16.9062 181.359 17.0156 181.328 17.1094C181.328 17.1719 181.312 17.3125 181.281 17.5312C181.281 17.75 181.328 17.9062 181.422 18C181.578 18.3438 182.047 18.5156 182.828 18.5156C183.703 18.5469 184.328 18.4844 184.703 18.3281C185.109 18.1719 185.484 17.9219 185.828 17.5781C185.516 16.6719 185.312 16.1094 185.219 15.8906L184.703 14.8594C184.609 14.8906 184.531 14.8281 184.469 14.6719V14.5781C185 14.9219 185.375 15.1719 185.594 15.3281C185.844 15.4531 186.016 15.5469 186.109 15.6094L186.531 16.125C186.656 16.3125 186.828 16.4375 187.047 16.5L187.562 16.7344C187.625 16.7969 187.734 16.9219 187.891 17.1094C188.047 17.2656 188.141 17.3906 188.172 17.4844C188.203 17.5469 188.219 17.6406 188.219 17.7656C188.188 18.4219 187.781 19.0312 187 19.5938C186.219 20.1562 185.547 20.4531 184.984 20.4844L183.953 20.4375H183.109C182.109 20.4375 181.359 20.2188 180.859 19.7812C180.391 19.3438 180.078 18.9531 179.922 18.6094C179.797 18.2656 179.75 17.8281 179.781 17.2969C179.781 16.2656 179.969 14.9375 180.344 13.3125L180.766 11.4844L180.719 11.25L179.359 11.8125C179.297 11.9688 179.25 12.0938 179.219 12.1875C179.219 12.25 179.203 12.4062 179.172 12.6562C179.172 12.9062 179.109 13.3594 178.984 14.0156C178.859 14.6719 178.719 15.2031 178.562 15.6094C178.438 15.9844 178.109 16.5781 177.578 17.3906C177.078 18.1719 176.703 18.6875 176.453 18.9375C176.234 19.2188 176.047 19.4844 175.891 19.7344C175.734 20.0156 175.578 20.125 175.422 20.0625L175.234 19.7812H175.094C175.031 19.7812 174.938 19.6406 174.812 19.3594H174.625C174.531 19.2031 174.484 19.0781 174.484 18.9844L174.391 18.2812L174.25 17.7188C174.25 17.6562 174.266 17.5781 174.297 17.4844L174.812 16.4062L175.047 15.6562L175.188 16.0312L175 16.1719L175.281 16.6406L175.75 16.0312V15.75C175.875 15.5625 175.969 15.375 176.031 15.1875C176.062 15.125 176.141 14.9531 176.266 14.6719C176.422 14.3906 176.516 14.2188 176.547 14.1562L176.641 13.875C176.797 13.4688 176.875 13.25 176.875 13.2188L176.828 13.0312L176.641 13.3594L176.359 13.4531C176.234 13.3906 176.094 13.2969 175.938 13.1719C175.781 13.0469 175.656 12.9375 175.562 12.8438C175.469 12.7188 175.328 12.3594 175.141 11.7656C174.953 11.8281 174.859 11.875 174.859 11.9062L175 12.3281L174.906 12.4219L174.859 12.7031C174.672 12.8594 174.578 13.0625 174.578 13.3125L174.438 13.4531C174.375 13.6406 174.297 13.875 174.203 14.1562L173.734 15.375L172.656 17.8594C172.25 18.7344 172 19.3594 171.906 19.7344C171.844 20.1406 171.75 20.3438 171.625 20.3438C171.531 20.375 171.375 20.3125 171.156 20.1562V20.0156C170.812 19.7969 170.625 19.5938 170.594 19.4062L170.547 19.1719L170.031 18.2812C169.906 18 169.984 17.7344 170.266 17.4844V17.2969L170.406 17.1562V16.9219L170.547 16.7344V16.5L170.688 16.3594V16.1719C170.75 16.1406 170.797 16.0938 170.828 16.0312L171.484 14.625C171.516 14.5625 171.594 14.4219 171.719 14.2031C171.875 13.9531 171.938 13.7344 171.906 13.5469C171.906 13.3281 171.531 12.8906 170.781 12.2344H170.641L170.406 11.8594V11.6719L170.266 11.5312V10.4062C170.391 10.1875 170.609 9.84375 170.922 9.375C171.266 8.875 171.484 8.5 171.578 8.25L171.719 8.0625L171.625 8.01562L171.344 8.20312H171.062L170.922 8.34375C170.484 8.53125 170.141 8.51562 169.891 8.29688C169.641 8.07812 169.531 7.90625 169.562 7.78125V7.6875L169.281 7.5ZM174.297 10.7344L174.438 10.5469L174.156 10.4062C174.094 10.5625 174.062 10.6875 174.062 10.7812C174.094 10.875 174.125 10.9375 174.156 10.9688C174.219 10.9688 174.234 10.9375 174.203 10.875C174.203 10.8125 174.234 10.7656 174.297 10.7344ZM178.797 9.75C179.859 9.40625 180.688 9.1875 181.281 9.09375L181.375 8.85938L181.188 8.67188V8.48438L181.328 8.25L181.188 8.10938V7.82812L180.578 6.84375C180.328 7 180.172 7.10938 180.109 7.17188L179.5 8.10938L179.406 8.25V8.48438C179.375 8.51562 179.328 8.625 179.266 8.8125L178.891 9.5625C178.703 9.75 178.672 9.8125 178.797 9.75Z" fill="white"/>
</svg>
