<svg width="3666" height="2595" viewBox="0 0 3666 2595" fill="none" xmlns="http://www.w3.org/2000/svg">
<g clip-path="url(#clip0_49_4658)">
<path d="M969.288 1464.72L1088.32 1670.88L1105.03 1661.23L995.509 1471.55L1034.11 1449.26L1024.59 1432.79L969.288 1464.72ZM1019.65 1435.64L1022.51 1440.58C1026.23 1460.08 1032.28 1493.93 1034.76 1521.05C1064.76 1527.9 1078.9 1540.44 1086.38 1553.39C1090.45 1560.45 1092.57 1567.38 1090.3 1572.14C1088.67 1575.29 1086.25 1577.62 1082.95 1579.52C1079.09 1582.07 1073.91 1585.06 1067.39 1587.89C1072.93 1590.96 1078.65 1597.07 1081.1 1601.31C1087.25 1598.38 1093.84 1594.58 1098.61 1590.88C1103.52 1587.42 1107.17 1583.43 1109.34 1579.04C1114.02 1569.75 1111.28 1558.47 1103.8 1545.52C1095.38 1530.93 1081.16 1517.17 1050.25 1509.29C1048.46 1485.53 1044.62 1456.06 1041.34 1431.9L1025.36 1431.4L1022.95 1433.74L1019.65 1435.64ZM1063.04 1444.48L1072.41 1460.72L1191.5 1391.97L1182.12 1375.73L1063.04 1444.48ZM1102.78 1528.54L1112.43 1545.25L1244.93 1468.75L1235.28 1452.04L1102.78 1528.54ZM1092.41 1380.14L1140.24 1462.98C1163.75 1503.69 1189.77 1555.82 1139.48 1624.71C1145.89 1626.03 1154.84 1629.02 1159.5 1631.67C1210.54 1557.01 1184.39 1498.68 1157.89 1452.79L1110.07 1369.95L1092.41 1380.14ZM1086.87 1468.37C1101.55 1479.67 1118.24 1496.08 1126.59 1507.26L1139.91 1493.92C1131.23 1483.24 1114.21 1467.34 1099.43 1456.42L1086.87 1468.37ZM1173.76 1412.88C1178.25 1428.8 1182.91 1453.72 1184.33 1469.22L1200.66 1465.44C1199.85 1449.91 1196.17 1427.24 1192.95 1408.07L1173.76 1412.88ZM1182.54 1492.22L1170.02 1504.78C1204.38 1537.66 1245.02 1557.5 1285.36 1556.17C1285.37 1550.21 1286.84 1540.26 1289.18 1534.52C1251.41 1538.12 1213.01 1521.07 1182.54 1492.22Z" fill="#332C2B"/>
<path d="M1313.02 1498.47L1322.54 1514.94L1489.16 1418.74L1479.65 1402.27L1313.02 1498.47ZM1233.42 1387.22L1319.43 1536.19L1336.61 1526.27L1260.11 1393.78L1413.32 1305.32L1489.41 1437.11L1507.3 1426.79L1421.69 1278.52L1233.42 1387.22ZM1346.02 1332.25L1374.83 1382.14C1384.61 1399.09 1391.57 1401.35 1408.98 1391.29C1412.51 1389.25 1428.52 1380.01 1432.28 1377.84C1445.46 1370.23 1447.04 1362.1 1436.29 1339.13C1430.9 1340.67 1422.35 1342.16 1417.56 1341.47C1426.19 1357.51 1426.24 1360.31 1421.06 1363.3C1417.76 1365.2 1404.82 1372.67 1402.23 1374.17C1396.35 1377.56 1395 1377.4 1392.01 1372.22L1363.2 1322.33L1346.02 1332.25ZM1193.81 1341.99L1203.73 1359.17L1410.6 1239.74L1400.68 1222.56L1193.81 1341.99ZM1267.07 1315.07L1295.34 1364.02L1312.52 1354.1L1284.25 1305.15L1267.07 1315.07ZM1319.08 1285.04L1347.35 1333.99L1365 1323.8L1336.74 1274.85L1319.08 1285.04ZM1293.32 1358.91L1306.37 1381.5C1316.69 1399.39 1322.77 1423.5 1299.49 1457.64C1304.38 1457.96 1314.37 1460.04 1318.76 1462.21C1343.2 1425.19 1335.89 1394.58 1323.11 1372.46L1309.8 1349.4L1293.32 1358.91Z" fill="#332C2B"/>
<path d="M1504.32 1142.01L1536.25 1197.32C1538.01 1200.38 1537.25 1201.76 1533.71 1203.8C1530.22 1206.45 1517.51 1213.78 1503.45 1220.96C1508.86 1223.8 1515.82 1228.25 1519.72 1232.28C1536.43 1222.63 1547.72 1216.11 1553.76 1209.17C1559.7 1202.61 1559.47 1196.78 1554.17 1187.6L1521.97 1131.82L1504.32 1142.01ZM1586.41 1152.67C1576.79 1203.41 1523.3 1257.51 1464.14 1302.33C1469.85 1304.06 1479.74 1308.7 1484.31 1311.72C1541.3 1265.32 1596.33 1208.44 1607.7 1150.42L1586.41 1152.67ZM1466.57 1180.44C1464.89 1205.26 1455.14 1233.48 1441.99 1255.82C1447.62 1256.33 1458.12 1258.74 1462.94 1260.04C1475.28 1236.29 1485.04 1204.29 1486.87 1175.93L1466.57 1180.44ZM1565.39 1133.11C1591.96 1135.66 1625.83 1142.15 1643.66 1149.11L1653.02 1130.53C1634.11 1123.87 1600.41 1118.23 1574.25 1116.39L1565.39 1133.11ZM1508.52 1268.87L1577.82 1388.89L1595 1378.98L1533.85 1273.07L1636.94 1213.56L1697.4 1318.28L1715.29 1307.96L1646.67 1189.11L1508.52 1268.87ZM1536.02 1296.93L1543.49 1309.87L1663.28 1240.71L1655.81 1227.76L1536.02 1296.93ZM1554.77 1329.4L1562.24 1342.35L1682.03 1273.19L1674.56 1260.24L1554.77 1329.4ZM1573.38 1361.64L1581.4 1375.53L1701.19 1306.37L1693.17 1292.48L1573.38 1361.64Z" fill="#332C2B"/>
<path d="M1714.57 1091.23C1715.28 1123.45 1707.25 1160.09 1695.41 1187.95C1700.78 1190.19 1711.16 1196.75 1714.98 1199.56C1726.84 1167.93 1734.64 1125.45 1733.87 1088.24L1714.57 1091.23ZM1679.46 1041.84C1679.46 1064.12 1670.49 1095.34 1659.44 1118.04C1664.16 1119.7 1672.71 1124.18 1677.14 1126.96C1689.23 1101.15 1698.48 1066.63 1700.07 1038.41L1679.46 1041.84ZM1718.05 1147.27L1787.48 1267.53L1805.37 1257.2L1726.29 1120.23L1725.31 1120.17L1718.05 1147.27ZM1720.78 1040.57L1730.42 1057.28L1859.16 982.959L1849.51 966.249L1720.78 1040.57ZM1836.12 1086L1845.5 1102.24L1903.63 1068.68L1894.25 1052.44L1836.12 1086ZM1807.45 1224.94L1817.1 1241.65L1968.42 1154.28L1958.78 1137.57L1807.45 1224.94ZM1765.76 1098.38L1836.15 1220.29L1853.09 1210.51L1782.71 1088.6L1765.76 1098.38ZM1782.13 1012.05L1886.62 1193.03L1904.27 1182.84L1799.78 1001.86L1782.13 1012.05Z" fill="#332C2B"/>
<path d="M1947.15 901.406L1955.44 915.762L2064.4 852.851L2056.11 838.495L1947.15 901.406ZM1981.96 968.227L1990.39 982.818L2106.41 915.831L2097.99 901.24L1981.96 968.227ZM2000.85 1000.94L2009.27 1015.53L2124.83 948.816L2116.4 934.224L2000.85 1000.94ZM2054.82 1078.66L2063.25 1093.26L2165.39 1034.28L2156.96 1019.69L2054.82 1078.66ZM1943.78 946.656L1952.34 961.482L2105.55 873.027L2096.99 858.2L1943.78 946.656ZM2017.38 1035.01L2060.46 1109.62L2077.4 1099.83L2042.62 1039.58L2128.52 989.989L2162.89 1049.53L2180.55 1039.34L2137.88 965.442L2017.38 1035.01ZM1910.91 908.207C1917.91 951.86 1915.1 1000.24 1904.23 1036.32C1909.98 1038.66 1920.22 1044.98 1924.17 1048.03C1935.21 1006.83 1937.57 952.75 1930.61 903.738L1910.91 908.207ZM1921.49 983.057L2010.76 1137.68L2027.71 1127.9L1928.92 956.8L1928.55 956.701L1921.49 983.057Z" fill="#332C2B"/>
<path d="M2102.9 837.213L2112.55 853.923L2318.71 734.895L2309.06 718.186L2102.9 837.213ZM2208.83 888.078L2217.67 903.375L2328.28 839.513L2319.45 824.216L2208.83 888.078ZM2173.26 855.271L2255.19 997.183L2272.61 987.129L2199.78 860.984L2302.63 801.606L2293.52 785.838L2173.26 855.271ZM2289.52 788.148L2358.68 907.938C2360.72 911.468 2359.99 913.46 2356.12 916.005C2351.89 918.451 2337.67 926.975 2321.49 935.373C2326.93 938.82 2333.73 944.621 2337.29 949.156C2357.53 937.471 2370.71 929.862 2376.61 922.689C2382.98 915.245 2381.98 908.61 2376 898.254L2306.7 778.229L2289.52 788.148ZM2162.2 762.187C2176.8 816.829 2177.83 882.755 2152.42 936.024C2157.99 937.516 2166.93 940.51 2171.6 943.152C2198.34 885.664 2196.42 817.112 2182.53 756.097L2162.2 762.187ZM2231.8 927.851L2240.63 943.148L2351.24 879.286L2342.41 863.989L2231.8 927.851Z" fill="#332C2B"/>
<path d="M2441.65 674.272L2450.21 689.099L2537.99 638.417L2529.43 623.59L2441.65 674.272ZM2486.32 836.44L2502.13 850.224C2521.97 831.866 2549.56 806.834 2575.27 782.888L2565.13 768.035C2535.99 793.647 2505.8 820.174 2486.32 836.44ZM2405.85 635.635L2513.73 822.498L2530.91 812.579L2423.03 625.716L2405.85 635.635ZM2415.97 629.792L2424.94 645.325L2503.78 599.806L2546.17 673.234L2467.33 718.752L2476.3 734.285L2572.32 678.847L2511.99 574.354L2415.97 629.792ZM2515.88 697.941L2502.91 709.189C2542.41 752.597 2587.26 779.734 2634.71 777.129C2634.72 771.163 2636.09 761.584 2638.05 755.744C2594.02 760.457 2551.4 736.108 2515.88 697.941ZM2571.68 686.434C2568.31 703.438 2559.22 728.455 2551.81 744.971L2568.04 747.528C2576.19 731.211 2585.29 708.384 2591.4 688.537L2571.68 686.434ZM2320.28 684.722L2439.44 891.12L2456.15 881.472L2346.23 691.079L2389.77 665.941L2380.53 649.938L2320.28 684.722ZM2375.35 652.927L2378.21 657.87C2382.17 677.233 2388.96 711.281 2391.91 738.133C2420.87 745.891 2434.78 758.57 2442.25 771.514C2446.7 778.674 2448.82 785.608 2446.31 790.507C2444.77 793.278 2442.36 795.615 2439.43 797.616C2435.33 800.297 2430.16 803.287 2423.63 806.113C2429.17 809.19 2434.66 815.435 2437.34 819.535C2443.5 816.609 2450.08 812.804 2455.09 808.973C2459.76 805.649 2463.42 801.655 2465.59 797.264C2469.8 788.245 2467.28 776.83 2459.81 763.886C2451.39 749.294 2437.27 735.167 2406.93 726.639C2404.9 703.019 2400.79 673.072 2397.04 649.19L2380.83 648.824L2378.65 651.025L2375.35 652.927Z" fill="#332C2B"/>
<path d="M2556.62 557.375L2564.77 571.496L2748.57 465.376L2740.42 451.256L2556.62 557.375ZM2584.93 580.878L2592.41 593.822L2755.5 499.659L2748.03 486.715L2584.93 580.878ZM2577.54 624.056L2585.69 638.176L2794.68 517.518L2786.53 503.397L2577.54 624.056ZM2628.97 493.009L2676.66 575.615L2694.55 565.289L2646.85 482.683L2628.97 493.009ZM2701.91 620.974L2713.32 640.743C2723.24 657.923 2729.73 684.927 2653.1 748.941C2659.13 750.161 2668.02 754.133 2672.17 756.44C2750.47 687.7 2745.26 653.679 2731.81 630.38L2720.26 610.376L2701.91 620.974ZM2749.1 666.841C2783.54 658.565 2830.37 651.615 2856.38 651.027L2856.77 631.037C2830.18 632.268 2783.66 640.295 2750.1 649.006L2749.1 666.841ZM2624.21 634.769L2664.7 704.902L2682.11 694.847L2650.45 640.012L2763.89 574.519L2794.6 627.707L2812.95 617.109L2773.41 548.623L2624.21 634.769Z" fill="#332C2B"/>
<path d="M2951.46 314.347C2928.63 341.65 2883 380.549 2842.48 411.47C2846.81 414.619 2853.21 419.714 2856.36 423.543C2897.95 392.313 2945.64 353.169 2973.2 321.564L2951.46 314.347ZM2874.57 485.517L2884.35 502.461L3038.97 413.191L3029.19 396.246L2874.57 485.517ZM2935.51 569.884L2945.3 586.829L3086.97 505.031L3077.19 488.086L2935.51 569.884ZM2904.89 376.069L2999.18 539.399L3016.84 529.208L2922.54 365.879L2904.89 376.069ZM2824.65 463.189L2913.51 617.104L2931.16 606.914L2832.52 436.053L2832.01 435.718L2824.65 463.189ZM2814.29 386.012C2821.03 431.385 2817.58 481.388 2805.48 519.127C2811.59 521.56 2822.31 527.614 2826.63 530.763C2838.68 488.036 2841.53 432.103 2834.6 381.506L2814.29 386.012Z" fill="#332C2B"/>
<path d="M3117.29 324.669C3125.39 364.239 3131.41 421.953 3131.41 460.547L3150.64 456.349C3151.61 417.818 3146.68 361.987 3140.99 317.89L3117.29 324.669ZM3099.34 471.847L3112.43 489.08C3155.59 461.653 3219.44 420.077 3279.07 380.948L3269.75 363.731C3208.45 403.205 3141.59 445.57 3099.34 471.847ZM3192.23 350.121C3227.58 362.975 3271.9 383.204 3295.32 398.234L3307.64 378.259C3283.51 363.636 3240.38 344.918 3204.69 332.572L3192.23 350.121ZM3048.27 260.023C3054.73 302.735 3051 350.076 3037.34 386.204C3043.91 386.174 3055.82 387.773 3061.62 389.129C3073.12 351.427 3077.04 301.152 3070.93 254.158L3048.27 260.023ZM3132.39 211.144L3119.19 228.494C3156.33 250.98 3208.85 274.004 3243.64 283.726C3244.59 277.216 3247.24 266.586 3249.78 260.103C3216.85 253.07 3165.72 233.006 3132.39 211.144Z" fill="#332C2B"/>
<path d="M3224.23 169.415L3234.02 186.36L3411.47 83.9094L3401.68 66.9646L3224.23 169.415ZM3249.7 210.256L3258.8 226.024L3400.71 144.091L3391.61 128.323L3249.7 210.256ZM3394.62 71.0409L3495.58 245.902C3498.16 250.374 3497.43 252.366 3493.09 255.183C3488.29 258.271 3472.28 267.511 3455.54 276.552C3461.35 280.099 3468.97 287.312 3473.03 292.181C3493.98 280.088 3508.67 271.293 3515.14 263.477C3521.47 255.427 3520.3 247.949 3513.23 235.711L3412.27 60.8502L3394.62 71.0409ZM3288.54 242.745L3342.07 335.471L3359.25 325.552L3305.72 232.826L3288.54 242.745ZM3302.66 234.593L3311.76 250.361L3390.84 204.706L3416.25 248.716L3337.17 294.37L3346.14 309.903L3442.63 254.194L3399.15 178.883L3302.66 234.593Z" fill="#332C2B"/>
<path d="M1213.86 1780.56C1211.52 1777.3 1208.5 1775.46 1204.79 1775.05C1201.08 1774.64 1197 1775.72 1192.54 1778.29C1189.51 1780.04 1187.2 1781.95 1185.61 1784.01C1184 1786.04 1183.07 1788.12 1182.81 1790.25C1182.58 1792.37 1183.01 1794.37 1184.1 1796.26C1184.95 1797.86 1186.07 1799.04 1187.47 1799.8C1188.89 1800.54 1190.49 1800.97 1192.27 1801.09C1194.03 1801.17 1195.94 1801.05 1197.99 1800.7C1200.02 1800.33 1202.12 1799.8 1204.28 1799.13L1213.26 1796.46C1217.59 1795.1 1221.76 1794.22 1225.79 1793.8C1229.82 1793.38 1233.6 1793.54 1237.15 1794.27C1240.7 1795 1243.94 1796.41 1246.86 1798.5C1249.81 1800.57 1252.35 1803.43 1254.49 1807.07C1257.57 1812.46 1258.88 1817.91 1258.44 1823.42C1258.02 1828.89 1255.89 1834.18 1252.06 1839.29C1248.23 1844.36 1242.75 1848.95 1235.6 1853.08C1228.51 1857.17 1221.71 1859.65 1215.2 1860.51C1208.71 1861.36 1202.77 1860.5 1197.37 1857.94C1191.97 1855.34 1187.38 1850.92 1183.59 1844.69L1201.56 1834.31C1203.46 1837.14 1205.72 1839.11 1208.35 1840.23C1210.98 1841.3 1213.85 1841.61 1216.94 1841.15C1220.05 1840.66 1223.2 1839.48 1226.4 1837.64C1229.55 1835.82 1232.01 1833.79 1233.8 1831.54C1235.62 1829.27 1236.7 1826.95 1237.04 1824.58C1237.39 1822.2 1236.95 1819.96 1235.73 1817.84C1234.59 1815.87 1233.05 1814.55 1231.1 1813.89C1229.18 1813.2 1226.83 1813.03 1224.06 1813.38C1221.31 1813.7 1218.12 1814.41 1214.47 1815.48L1203.52 1818.6C1195.08 1821.08 1187.61 1821.63 1181.11 1820.28C1174.61 1818.93 1169.5 1815 1165.78 1808.49C1162.68 1803.19 1161.42 1797.73 1161.98 1792.1C1162.58 1786.46 1164.74 1781.08 1168.49 1775.94C1172.23 1770.81 1177.3 1766.39 1183.71 1762.7C1190.22 1758.93 1196.56 1756.76 1202.7 1756.19C1208.88 1755.6 1214.47 1756.5 1219.48 1758.91C1224.49 1761.31 1228.55 1765.11 1231.65 1770.29L1213.86 1780.56Z" fill="#332C2B"/>
<path d="M1271.8 1830.52L1221.1 1742.71L1239.66 1731.99L1260.58 1768.22L1298.27 1746.46L1277.35 1710.23L1295.88 1699.54L1346.58 1787.35L1328.05 1798.04L1307.11 1761.77L1269.42 1783.53L1290.36 1819.8L1271.8 1830.52Z" fill="#332C2B"/>
<path d="M1382.93 1766.36L1363.04 1777.84L1342.65 1672.53L1366.58 1658.72L1447.55 1729.05L1427.65 1740.54L1366.54 1685.49L1365.86 1685.89L1382.93 1766.36ZM1361.76 1732.56L1408.76 1705.43L1417.12 1719.92L1370.13 1747.05L1361.76 1732.56Z" fill="#332C2B"/>
<path d="M1470.59 1715.75L1450.69 1727.24L1430.31 1621.92L1454.23 1608.11L1535.2 1678.44L1515.31 1689.93L1454.2 1634.88L1453.51 1635.28L1470.59 1715.75ZM1449.41 1681.95L1496.41 1654.82L1504.78 1669.31L1457.78 1696.45L1449.41 1681.95Z" fill="#332C2B"/>
<path d="M1565.82 1543.68L1616.52 1631.5L1600.48 1640.75L1530.37 1607.54L1529.73 1607.91L1561.64 1663.18L1543.07 1673.9L1492.37 1586.09L1508.67 1576.68L1578.45 1610.02L1579.23 1609.58L1547.34 1554.35L1565.82 1543.68Z" fill="#332C2B"/>
<path d="M1609.02 1518.74L1644.01 1538.45L1644.7 1538.05L1645.21 1497.85L1666.18 1485.74L1664.73 1545.12L1717.48 1573.21L1696.12 1585.54L1660.81 1565.96L1660.13 1566.36L1659.42 1606.73L1638.15 1619.01L1640.29 1559.23L1587.97 1530.9L1609.02 1518.74Z" fill="#332C2B"/>
<path d="M1691.55 1471.09L1742.25 1558.91L1723.68 1569.63L1672.98 1481.81L1691.55 1471.09Z" fill="#332C2B"/>
<path d="M1834.33 1429.65L1815.55 1440.49C1813.8 1438.26 1811.86 1436.51 1809.71 1435.23C1807.55 1433.93 1805.25 1433.08 1802.81 1432.7C1800.38 1432.31 1797.87 1432.39 1795.29 1432.93C1792.73 1433.45 1790.19 1434.44 1787.68 1435.89C1783.13 1438.51 1779.83 1441.93 1777.76 1446.13C1775.67 1450.31 1774.94 1455.08 1775.55 1460.44C1776.16 1465.77 1778.21 1471.48 1781.73 1477.57C1785.34 1483.83 1789.31 1488.55 1793.63 1491.74C1797.97 1494.91 1802.46 1496.61 1807.09 1496.83C1811.71 1497.06 1816.24 1495.89 1820.67 1493.33C1823.16 1491.9 1825.27 1490.24 1827.01 1488.36C1828.77 1486.47 1830.12 1484.41 1831.05 1482.2C1831.97 1479.95 1832.44 1477.6 1832.47 1475.15C1832.53 1472.67 1832.09 1470.14 1831.17 1467.55L1850 1456.79C1851.84 1461.1 1852.87 1465.69 1853.09 1470.56C1853.32 1475.38 1852.65 1480.2 1851.1 1485.03C1849.55 1489.81 1847.03 1494.35 1843.53 1498.66C1840.04 1502.92 1835.49 1506.68 1829.85 1509.93C1822.02 1514.45 1814 1516.72 1805.77 1516.74C1797.58 1516.75 1789.76 1514.42 1782.31 1509.77C1774.89 1505.09 1768.42 1497.99 1762.91 1488.44C1757.38 1478.86 1754.47 1469.68 1754.2 1460.88C1753.92 1452.08 1755.86 1444.14 1760 1437.06C1764.13 1429.95 1770.05 1424.17 1777.77 1419.71C1782.86 1416.78 1787.99 1414.77 1793.16 1413.69C1798.35 1412.59 1803.43 1412.44 1808.39 1413.24C1813.33 1414.01 1818 1415.75 1822.39 1418.48C1826.81 1421.19 1830.79 1424.91 1834.33 1429.65Z" fill="#332C2B"/>
<path d="M1867.93 1486.35L1817.23 1398.53L1851.87 1378.53C1858.51 1374.7 1864.85 1372.62 1870.91 1372.29C1876.98 1371.91 1882.49 1373.17 1887.44 1376.06C1892.4 1378.91 1896.56 1383.24 1899.91 1389.04C1903.27 1394.88 1904.91 1400.62 1904.82 1406.27C1904.72 1411.9 1902.92 1417.2 1899.43 1422.19C1895.98 1427.16 1890.88 1431.59 1884.13 1435.49L1860.93 1448.88L1852.32 1433.96L1872.51 1422.3C1876.06 1420.25 1878.72 1418.07 1880.5 1415.74C1882.29 1413.42 1883.19 1410.95 1883.21 1408.35C1883.26 1405.73 1882.45 1402.97 1880.78 1400.09C1879.1 1397.17 1877.1 1395.05 1874.77 1393.73C1872.47 1392.38 1869.84 1391.88 1866.87 1392.23C1863.92 1392.52 1860.65 1393.7 1857.08 1395.76L1844.56 1402.99L1886.49 1475.63L1867.93 1486.35ZM1892.28 1419L1937.18 1446.37L1916.68 1458.2L1872.25 1430.57L1892.28 1419Z" fill="#332C2B"/>
<path d="M1949.07 1439.5L1898.37 1351.69L1957.54 1317.52L1966.38 1332.83L1925.77 1356.27L1937.85 1377.2L1975.41 1355.51L1984.25 1370.82L1946.69 1392.51L1958.8 1413.47L1999.57 1389.93L2008.41 1405.24L1949.07 1439.5Z" fill="#332C2B"/>
<path d="M2046.08 1383.49L2014.96 1401.46L1964.26 1313.65L1995.64 1295.53C2004.48 1290.43 2013.09 1287.79 2021.5 1287.63C2029.89 1287.44 2037.69 1289.62 2044.89 1294.19C2052.13 1298.74 2058.38 1305.57 2063.65 1314.69C2068.93 1323.84 2071.74 1332.7 2072.08 1341.27C2072.44 1349.82 2070.42 1357.72 2066.02 1364.94C2061.65 1372.16 2055 1378.34 2046.08 1383.49ZM2024.34 1374.83L2036.13 1368.03C2041.62 1364.86 2045.67 1361.22 2048.29 1357.11C2050.93 1352.96 2052 1348.28 2051.51 1343.08C2051.03 1337.83 2048.91 1331.93 2045.13 1325.38C2041.38 1318.9 2037.36 1314.15 2033.07 1311.14C2028.81 1308.11 2024.24 1306.7 2019.37 1306.92C2014.51 1307.14 2009.33 1308.83 2003.84 1312L1992.01 1318.83L2024.34 1374.83Z" fill="#332C2B"/>
<path d="M2075.22 1249.58L2125.92 1337.39L2107.36 1348.11L2056.66 1260.3L2075.22 1249.58Z" fill="#332C2B"/>
<path d="M2099.5 1255.98L2090.66 1240.67L2162.78 1199.03L2171.62 1214.34L2144.73 1229.86L2186.59 1302.36L2168.24 1312.96L2126.38 1240.45L2099.5 1255.98Z" fill="#332C2B"/>
<path d="M2213.71 1169.63L2264.41 1257.44L2245.84 1268.16L2195.14 1180.34L2213.71 1169.63Z" fill="#332C2B"/>
<path d="M2305.94 1116.38L2356.64 1204.19L2340.6 1213.45L2270.49 1180.24L2269.84 1180.61L2301.75 1235.88L2283.19 1246.6L2232.49 1158.78L2248.78 1149.38L2318.57 1182.72L2319.34 1182.27L2287.46 1127.05L2305.94 1116.38Z" fill="#332C2B"/>
<path d="M2347.59 1092.33L2407.34 1146.79L2408.15 1146.32L2390.9 1067.32L2411.48 1055.44L2431.91 1160.73L2407.98 1174.55L2326.97 1104.23L2347.59 1092.33Z" fill="#332C2B"/>
<path d="M2465.56 1141.3L2414.87 1053.49L2474.04 1019.32L2482.87 1034.63L2442.27 1058.08L2454.35 1079L2491.91 1057.31L2500.75 1072.62L2463.19 1094.31L2475.29 1115.27L2516.07 1091.73L2524.91 1107.04L2465.56 1141.3Z" fill="#332C2B"/>
<path d="M2542.97 1013.2C2540.63 1009.94 2537.61 1008.1 2533.9 1007.69C2530.19 1007.27 2526.11 1008.35 2521.65 1010.93C2518.62 1012.68 2516.31 1014.58 2514.72 1016.65C2513.11 1018.68 2512.18 1020.76 2511.92 1022.89C2511.69 1025.01 2512.12 1027.01 2513.21 1028.89C2514.06 1030.5 2515.19 1031.68 2516.58 1032.44C2518 1033.18 2519.6 1033.61 2521.38 1033.73C2523.14 1033.81 2525.05 1033.68 2527.1 1033.34C2529.13 1032.96 2531.23 1032.44 2533.39 1031.76L2542.37 1029.09C2546.7 1027.74 2550.87 1026.85 2554.9 1026.43C2558.93 1026.02 2562.72 1026.17 2566.26 1026.91C2569.81 1027.64 2573.05 1029.05 2575.97 1031.14C2578.92 1033.21 2581.46 1036.06 2583.6 1039.71C2586.68 1045.1 2587.99 1050.55 2587.56 1056.06C2587.13 1061.53 2585 1066.82 2581.17 1071.93C2577.34 1076.99 2571.86 1081.59 2564.71 1085.71C2557.63 1089.81 2550.82 1092.29 2544.31 1093.15C2537.82 1094 2531.88 1093.14 2526.48 1090.58C2521.09 1087.98 2516.5 1083.56 2512.7 1077.32L2530.67 1066.95C2532.57 1069.78 2534.83 1071.75 2537.46 1072.87C2540.1 1073.93 2542.96 1074.24 2546.05 1073.79C2549.16 1073.29 2552.31 1072.12 2555.51 1070.27C2558.66 1068.46 2561.12 1066.42 2562.91 1064.17C2564.73 1061.9 2565.81 1059.58 2566.15 1057.21C2566.5 1054.84 2566.06 1052.6 2564.84 1050.48C2563.7 1048.51 2562.16 1047.19 2560.21 1046.52C2558.29 1045.84 2555.94 1045.67 2553.17 1046.01C2550.42 1046.34 2547.23 1047.04 2543.58 1048.12L2532.63 1051.24C2524.19 1053.71 2516.72 1054.27 2510.22 1052.92C2503.72 1051.56 2498.61 1047.63 2494.89 1041.13C2491.8 1035.83 2490.53 1030.36 2491.09 1024.74C2491.69 1019.1 2493.86 1013.71 2497.6 1008.58C2501.34 1003.45 2506.42 999.03 2512.82 995.333C2519.34 991.57 2525.67 989.401 2531.81 988.825C2537.99 988.232 2543.58 989.139 2548.59 991.544C2553.6 993.95 2557.66 997.743 2560.77 1002.92L2542.97 1013.2Z" fill="#332C2B"/>
<path d="M2555.7 992.585L2546.87 977.278L2618.99 935.639L2627.82 950.946L2600.94 966.468L2642.8 1038.97L2624.45 1049.57L2582.59 977.063L2555.7 992.585Z" fill="#332C2B"/>
<path d="M2641.14 922.845L2691.84 1010.66L2673.28 1021.38L2622.58 933.564L2641.14 922.845Z" fill="#332C2B"/>
<path d="M2734.54 906.77C2732.73 905.03 2730.83 903.673 2728.82 902.699C2726.79 901.697 2724.67 901.093 2722.45 900.885C2720.25 900.633 2717.97 900.785 2715.62 901.34C2713.31 901.878 2710.95 902.84 2708.54 904.227C2704.06 906.818 2700.76 910.21 2698.64 914.404C2696.56 918.581 2695.8 923.343 2696.37 928.692C2696.93 934.012 2698.97 939.73 2702.5 945.847C2706.03 951.965 2709.97 956.631 2714.3 959.846C2718.63 963.061 2723.15 964.815 2727.86 965.11C2732.55 965.375 2737.21 964.171 2741.84 961.498C2746.04 959.072 2749.2 956.257 2751.31 953.055C2753.44 949.807 2754.5 946.357 2754.49 942.705C2754.5 939.037 2753.43 935.33 2751.27 931.586L2755.36 929.964L2732.72 943.035L2724.65 929.057L2761.4 907.842L2767.79 918.904C2772.24 926.622 2774.44 934.195 2774.38 941.622C2774.31 949.02 2772.28 955.87 2768.3 962.172C2764.3 968.446 2758.61 973.711 2751.23 977.969C2743 982.722 2734.72 985.083 2726.39 985.05C2718.05 984.989 2710.2 982.606 2702.83 977.902C2695.48 973.153 2689.13 966.148 2683.78 956.886C2679.67 949.769 2677.03 942.829 2675.87 936.066C2674.73 929.259 2674.9 922.831 2676.4 916.781C2677.9 910.732 2680.55 905.256 2684.36 900.355C2688.16 895.454 2692.96 891.328 2698.76 887.978C2703.74 885.106 2708.79 883.162 2713.92 882.144C2719.03 881.098 2724 880.932 2728.84 881.648C2733.7 882.347 2738.24 883.901 2742.45 886.31C2746.64 888.69 2750.3 891.879 2753.41 895.878L2734.54 906.77Z" fill="#332C2B"/>
<path d="M2814.98 939.563L2795.09 951.05L2774.7 845.735L2798.63 831.921L2879.6 902.257L2859.71 913.743L2798.6 858.696L2797.91 859.093L2814.98 939.563ZM2793.81 905.765L2840.81 878.633L2849.17 893.126L2802.18 920.257L2793.81 905.765Z" fill="#332C2B"/>
<path d="M2833.13 832.411L2824.29 817.104L2896.41 775.465L2905.25 790.772L2878.37 806.294L2920.23 878.8L2901.88 889.395L2860.02 816.889L2833.13 832.411Z" fill="#332C2B"/>
<path d="M2918.57 762.672L2969.27 850.485L2950.7 861.204L2900.01 773.391L2918.57 762.672Z" fill="#332C2B"/>
<path d="M3043.4 749.146C3048.93 758.722 3051.82 767.917 3052.06 776.73C3052.34 785.527 3050.39 793.497 3046.2 800.639C3042.03 807.736 3036.07 813.521 3028.32 817.994C3020.52 822.499 3012.49 824.77 3004.24 824.807C2995.99 824.844 2988.13 822.543 2980.65 817.905C2973.17 813.267 2966.67 806.174 2961.16 796.627C2955.63 787.051 2952.73 777.864 2952.45 769.068C2952.17 760.271 2954.12 752.324 2958.3 745.226C2962.45 738.1 2968.43 732.285 2976.24 727.779C2983.98 723.307 2991.98 721.052 3000.23 721.016C3008.49 720.934 3016.36 723.212 3023.84 727.85C3031.35 732.471 3037.87 739.57 3043.4 749.146ZM3024.57 760.014C3020.99 753.811 3017.04 749.116 3012.73 745.93C3008.44 742.727 3003.99 740.99 2999.37 740.72C2994.76 740.45 2990.21 741.61 2985.72 744.201C2981.23 746.793 2977.95 750.154 2975.87 754.286C2973.8 758.418 2973.06 763.15 2973.67 768.482C2974.3 773.797 2976.4 779.556 2979.98 785.759C2983.56 791.962 2987.5 796.665 2991.79 799.868C2996.1 803.055 3000.57 804.783 3005.19 805.053C3009.8 805.323 3014.35 804.163 3018.84 801.572C3023.33 798.98 3026.61 795.619 3028.68 791.487C3030.76 787.355 3031.48 782.631 3030.85 777.316C3030.25 771.984 3028.16 766.217 3024.57 760.014Z" fill="#332C2B"/>
<path d="M3106.44 654.205L3157.14 742.018L3141.1 751.277L3070.99 718.065L3070.35 718.436L3102.26 773.705L3083.69 784.424L3032.99 696.611L3049.29 687.204L3119.07 720.547L3119.85 720.101L3087.96 664.875L3106.44 654.205Z" fill="#332C2B"/>
<path d="M3256.23 608.714L3237.45 619.557C3235.71 617.326 3233.76 615.572 3231.61 614.296C3229.45 612.991 3227.15 612.146 3224.72 611.759C3222.29 611.373 3219.78 611.45 3217.19 611.989C3214.63 612.513 3212.1 613.5 3209.58 614.953C3205.04 617.577 3201.73 620.992 3199.66 625.197C3197.58 629.374 3196.84 634.143 3197.46 639.504C3198.06 644.835 3200.12 650.546 3203.63 656.634C3207.25 662.894 3211.21 667.618 3215.53 670.804C3219.88 673.974 3224.36 675.672 3228.99 675.897C3233.62 676.122 3238.15 674.955 3242.58 672.397C3245.06 670.961 3247.18 669.304 3248.91 667.425C3250.68 665.53 3252.02 663.475 3252.96 661.26C3253.87 659.016 3254.34 656.666 3254.37 654.21C3254.43 651.737 3254 649.204 3253.07 646.613L3271.9 635.856C3273.74 640.167 3274.77 644.756 3274.99 649.623C3275.22 654.445 3274.56 659.268 3273 664.094C3271.45 668.874 3268.93 673.418 3265.43 677.724C3261.95 681.985 3257.39 685.741 3251.76 688.992C3243.93 693.514 3235.9 695.785 3227.68 695.806C3219.49 695.809 3211.66 693.484 3204.21 688.829C3196.79 684.158 3190.32 677.049 3184.81 667.502C3179.28 657.926 3176.38 648.739 3176.1 639.943C3175.83 631.146 3177.76 623.207 3181.9 616.126C3186.03 609.017 3191.95 603.234 3199.67 598.778C3204.76 595.841 3209.89 593.832 3215.06 592.753C3220.26 591.657 3225.34 591.507 3230.29 592.304C3235.24 593.072 3239.9 594.818 3244.29 597.542C3248.72 600.249 3252.7 603.973 3256.23 608.714Z" fill="#332C2B"/>
<path d="M3343.61 575.82C3349.14 585.396 3352.03 594.59 3352.27 603.404C3352.55 612.201 3350.6 620.17 3346.41 627.313C3342.24 634.41 3336.28 640.195 3328.53 644.667C3320.73 649.173 3312.7 651.444 3304.45 651.481C3296.2 651.517 3288.34 649.217 3280.86 644.579C3273.38 639.941 3266.88 632.848 3261.37 623.3C3255.84 613.724 3252.94 604.538 3252.66 595.741C3252.38 586.944 3254.33 578.997 3258.51 571.9C3262.66 564.774 3268.64 558.958 3276.45 554.453C3284.19 549.98 3292.19 547.726 3300.44 547.689C3308.7 547.607 3316.57 549.885 3324.05 554.523C3331.56 559.145 3338.08 566.244 3343.61 575.82ZM3324.78 586.687C3321.2 580.484 3317.25 575.79 3312.94 572.603C3308.65 569.4 3304.2 567.664 3299.58 567.394C3294.97 567.124 3290.42 568.284 3285.93 570.875C3281.44 573.466 3278.16 576.828 3276.08 580.96C3274.01 585.092 3273.27 589.823 3273.88 595.155C3274.51 600.471 3276.61 606.23 3280.19 612.433C3283.77 618.636 3287.71 623.339 3292 626.542C3296.31 629.728 3300.78 631.456 3305.4 631.727C3310.01 631.997 3314.56 630.836 3319.05 628.245C3323.54 625.654 3326.82 622.293 3328.89 618.161C3330.97 614.029 3331.69 609.305 3331.06 603.99C3330.46 598.658 3328.37 592.89 3324.78 586.687Z" fill="#332C2B"/>
<path d="M3389.74 609.214C3386.91 610.847 3383.9 611.25 3380.72 610.421C3377.55 609.546 3375.14 607.694 3373.51 604.864C3371.89 602.063 3371.51 599.084 3372.35 595.928C3373.23 592.755 3375.08 590.352 3377.91 588.718C3380.65 587.134 3383.63 586.748 3386.84 587.561C3390.06 588.373 3392.47 590.18 3394.09 592.982C3395.18 594.868 3395.69 596.878 3395.63 599.012C3395.57 601.1 3395.05 603.061 3394.05 604.896C3393.03 606.702 3391.6 608.141 3389.74 609.214Z" fill="#332C2B"/>
<path d="M3422.66 572.711L3424.91 577.7C3426.72 581.688 3428.18 585.859 3429.28 590.214C3430.43 594.582 3431.32 598.625 3431.94 602.343C3432.59 606.046 3433.08 608.967 3433.4 611.107L3421.56 617.939C3421.02 616.005 3420.24 613.308 3419.24 609.849C3418.25 606.419 3417 602.641 3415.49 598.517C3413.99 594.393 3412.2 590.338 3410.13 586.351L3407.57 581.425L3422.66 572.711Z" fill="#332C2B"/>
<path d="M3441.41 577.896L3390.71 490.083L3409.28 479.364L3451.14 551.87L3488.78 530.134L3497.62 545.442L3441.41 577.896Z" fill="#332C2B"/>
<path d="M3450.64 475.894L3441.8 460.587L3513.92 418.949L3522.76 434.256L3495.87 449.778L3537.73 522.283L3519.38 532.879L3477.52 460.373L3450.64 475.894Z" fill="#332C2B"/>
<path d="M3599.34 486.715L3568.21 504.688L3517.51 416.875L3548.9 398.754C3557.73 393.654 3566.35 391.022 3574.75 390.858C3583.14 390.665 3590.94 392.851 3598.15 397.417C3605.39 401.966 3611.64 408.799 3616.9 417.918C3622.18 427.065 3624.99 435.925 3625.33 444.496C3625.7 453.051 3623.68 460.943 3619.28 468.172C3614.9 475.385 3608.26 481.566 3599.34 486.715ZM3577.59 478.061L3589.38 471.253C3594.87 468.085 3598.93 464.447 3601.55 460.342C3604.18 456.191 3605.26 451.513 3604.77 446.307C3604.29 441.057 3602.16 435.158 3598.38 428.612C3594.63 422.124 3590.62 417.374 3586.32 414.363C3582.06 411.336 3577.5 409.932 3572.63 410.15C3567.76 410.368 3562.58 412.062 3557.1 415.231L3545.26 422.063L3577.59 478.061Z" fill="#332C2B"/>
<path fill-rule="evenodd" clip-rule="evenodd" d="M275.064 1831.05L595.239 1646.2L648.572 1615.37C677.932 1598.41 715.794 1608.59 732.745 1637.95L763.548 1691.3L336.669 1937.76L388.013 2026.69C416.245 2075.59 479.387 2092.51 528.287 2064.27L614.501 2014.5L617.218 2012.93L667.853 1983.7C697.18 1966.76 735.075 1976.92 752.007 2006.25L782.828 2059.63L676.125 2121.24L500.981 2222.35L394.278 2283.96L229.965 1999.36L199.163 1946.01C182.212 1916.65 192.333 1878.78 221.693 1861.82L275.064 1831.05ZM293.467 1678.11C308.229 1669.59 327.073 1674.64 335.577 1689.37C344.081 1704.1 339.031 1722.94 324.27 1731.47L137.539 1839.28L110.83 1854.7C96.1666 1863.16 91.0896 1882.11 99.5745 1896.81L114.976 1923.48L222.785 2110.21C231.289 2124.94 226.291 2143.8 211.529 2152.32C196.8 2160.83 177.937 2155.74 169.433 2141.01L30.8026 1900.9L15.4013 1874.22C6.93531 1859.56 12.0123 1840.61 26.6758 1832.15L53.3517 1816.75L293.467 1678.11ZM724.779 2425.17C739.541 2416.65 744.59 2397.8 736.067 2383.04C727.564 2368.31 708.719 2363.26 693.958 2371.78L507.227 2479.59L480.518 2495.01C465.855 2503.48 446.907 2498.4 438.441 2483.74L423.04 2457.06L315.212 2270.3C306.708 2255.57 287.896 2250.5 273.135 2259.03C258.406 2267.53 253.356 2286.37 261.86 2301.1L400.491 2541.22L415.892 2567.89C424.377 2582.59 443.324 2587.67 457.988 2579.2L484.664 2563.8L724.779 2425.17ZM884.867 2332.74C870.138 2341.25 851.294 2336.2 842.771 2321.44C834.267 2306.71 839.316 2287.86 854.045 2279.36L1040.81 2171.53L1067.48 2156.13C1082.18 2147.64 1087.26 2128.7 1078.79 2114.03L1063.39 2087.36L955.563 1900.59C947.059 1885.86 952.076 1867.04 966.837 1858.52C981.566 1850.01 1000.41 1855.06 1008.91 1869.79L1147.55 2109.91L1162.95 2136.58C1171.43 2151.28 1166.35 2170.23 1151.69 2178.69L1125.01 2194.09L884.867 2332.74ZM453.555 1585.69C438.826 1594.19 433.776 1613.04 442.28 1627.77C450.784 1642.49 469.628 1647.54 484.357 1639.04L671.121 1531.21L697.797 1515.81C712.493 1507.33 731.441 1512.4 739.926 1527.1L755.327 1553.77L863.136 1740.51C871.64 1755.23 890.47 1760.34 905.232 1751.81C919.961 1743.31 924.992 1724.43 916.488 1709.7L777.857 1469.59L762.456 1442.91C753.99 1428.25 735.042 1423.17 720.379 1431.64L693.703 1447.04L453.555 1585.69ZM903.303 2179.78L583.127 2364.64L529.776 2395.44C500.416 2412.39 462.553 2402.22 445.621 2372.89L414.819 2319.54L841.698 2073.08L790.335 1984.12C762.102 1935.22 698.961 1918.3 650.028 1946.55L563.847 1996.31L561.13 1997.87L510.495 2027.11C481.168 2044.04 443.292 2033.92 426.341 2004.56L395.538 1951.21L502.242 1889.6L677.386 1788.48L784.089 1726.88L948.401 2011.47L979.204 2064.83C996.136 2094.15 986.014 2132.03 956.655 2148.98L903.303 2179.78Z" fill="url(#paint0_linear_49_4658)"/>
</g>
<defs>
<linearGradient id="paint0_linear_49_4658" x1="55.3086" y1="1868.8" x2="1128.45" y2="2140" gradientUnits="userSpaceOnUse">
<stop stop-color="#B72024"/>
<stop offset="1" stop-color="#D46923"/>
</linearGradient>
<clipPath id="clip0_49_4658">
<rect width="3665.91" height="2594.6" fill="white"/>
</clipPath>
</defs>
</svg>
