<svg width="28" height="28" viewBox="0 0 28 28" fill="" xmlns="http://www.w3.org/2000/svg">
<path d="M5.79631 22.2181H22.2251V5.78617H5.79631V22.2181ZM8.03739 8.02769H19.9841V19.9767H8.03739V8.02769ZM3.18683 8.77331C3.80522 8.77331 4.30519 8.27334 4.30519 7.65481V4.29475H7.66447C8.28301 4.29475 8.78298 3.79478 8.78298 3.17609C8.78298 2.5574 8.28301 2.05743 7.66447 2.05743H3.18683C2.56814 2.05743 2.06832 2.5574 2.06832 3.17609V7.65899C2.06414 8.27334 2.56411 8.77331 3.18683 8.77331ZM7.6645 23.7097H4.30522V20.3496C4.30522 19.7308 3.80525 19.2308 3.18686 19.2308C2.56817 19.2308 2.06835 19.7308 2.06835 20.3496V24.8282C2.06835 25.4469 2.56817 25.9468 3.18686 25.9468H7.66886C8.28755 25.9468 8.78737 25.4469 8.78737 24.8282C8.78301 24.2096 8.28304 23.7097 7.6645 23.7097ZM24.8388 2.05322H20.3568C19.7384 2.05322 19.2384 2.55319 19.2384 3.17173C19.2384 3.79042 19.7384 4.29039 20.3568 4.29039H23.7164V7.65056C23.7164 8.2691 24.2162 8.76907 24.8347 8.76907C25.4531 8.76907 25.9531 8.2691 25.9531 7.65056V3.17176C25.9573 2.55322 25.4575 2.05322 24.8388 2.05322ZM24.8388 19.2308C24.2204 19.2308 23.7204 19.7308 23.7204 20.3496V23.7096H20.3611C19.7424 23.7096 19.2428 24.2096 19.2428 24.8281C19.2428 25.4468 19.7424 25.9468 20.3611 25.9468H24.8433C25.4617 25.9468 25.9616 25.4468 25.9616 24.8281V20.3496C25.9573 19.7308 25.4575 19.2308 24.8388 19.2308Z" fill=""/>
</svg>
