<svg width="28" height="28" viewBox="0 0 28 28" fill="" xmlns="http://www.w3.org/2000/svg">
<path d="M14 1.75C7.23516 1.75 1.75 7.23516 1.75 14C1.75 20.7648 7.23516 26.25 14 26.25C20.7648 26.25 26.25 20.7648 26.25 14C26.25 7.23516 20.7648 1.75 14 1.75ZM14 24.1719C8.38359 24.1719 3.82812 19.6164 3.82812 14C3.82812 8.38359 8.38359 3.82812 14 3.82812C19.6164 3.82812 24.1719 8.38359 24.1719 14C24.1719 19.6164 19.6164 24.1719 14 24.1719Z" fill=""/>
<path d="M19.031 13.1238H8.96851C8.84819 13.1238 8.74976 13.2222 8.74976 13.3425V14.655C8.74976 14.7753 8.84819 14.8738 8.96851 14.8738H19.031C19.1513 14.8738 19.2498 14.7753 19.2498 14.655V13.3425C19.2498 13.2222 19.1513 13.1238 19.031 13.1238Z" fill=""/>
</svg>
