<svg width="28" height="28" viewBox="0 0 28 28" fill="" xmlns="http://www.w3.org/2000/svg">
<path d="M19.031 13.1263H14.8748V8.97003C14.8748 8.84972 14.7764 8.75128 14.656 8.75128H13.3435C13.2232 8.75128 13.1248 8.84972 13.1248 8.97003V13.1263H8.96854C8.84822 13.1263 8.74979 13.2247 8.74979 13.345V14.6575C8.74979 14.7778 8.84822 14.8763 8.96854 14.8763H13.1248V19.0325C13.1248 19.1528 13.2232 19.2513 13.3435 19.2513H14.656C14.7764 19.2513 14.8748 19.1528 14.8748 19.0325V14.8763H19.031C19.1514 14.8763 19.2498 14.7778 19.2498 14.6575V13.345C19.2498 13.2247 19.1514 13.1263 19.031 13.1263Z" fill=""/>
<path d="M14 1.75C7.23516 1.75 1.75 7.23516 1.75 14C1.75 20.7648 7.23516 26.25 14 26.25C20.7648 26.25 26.25 20.7648 26.25 14C26.25 7.23516 20.7648 1.75 14 1.75ZM14 24.1719C8.38359 24.1719 3.82812 19.6164 3.82812 14C3.82812 8.38359 8.38359 3.82812 14 3.82812C19.6164 3.82812 24.1719 8.38359 24.1719 14C24.1719 19.6164 19.6164 24.1719 14 24.1719Z" fill=""/>
</svg>
