<svg width="28" height="28" viewBox="0 0 28 28" fill="" xmlns="http://www.w3.org/2000/svg">
<path d="M21.6942 24.2199C24.6192 21.9324 26.5005 18.3699 26.5005 14.3699C26.5005 7.46681 20.9224 1.88243 14.0192 1.87306C7.10674 1.86368 1.50049 7.46056 1.50049 14.3699C1.50049 18.2824 3.29736 21.7731 6.11299 24.0637C6.22236 24.1512 6.38174 24.1324 6.46924 24.0231L7.70049 22.4449C7.78486 22.3387 7.76611 22.1856 7.66299 22.0981C7.40986 21.8918 7.16611 21.6699 6.93174 21.4356C6.01805 20.525 5.28998 19.4457 4.78799 18.2574C4.26299 17.0293 4.00049 15.7199 4.00049 14.3699C4.00049 13.0199 4.26299 11.7106 4.78486 10.4793C5.28799 9.28868 6.00986 8.21993 6.92861 7.30118C7.84736 6.38243 8.91611 5.66056 10.1067 5.15743C11.3411 4.63556 12.6505 4.37306 14.0005 4.37306C15.3505 4.37306 16.6599 4.63556 17.8911 5.15743C19.0817 5.66056 20.1505 6.38243 21.0692 7.30118C21.988 8.21993 22.7099 9.28868 23.213 10.4793C23.7349 11.7106 23.9974 13.0199 23.9974 14.3699C23.9974 15.7199 23.7349 17.0293 23.213 18.2606C22.711 19.4488 21.9829 20.5282 21.0692 21.4387C20.7786 21.7293 20.4724 22.0012 20.1536 22.2512L18.8817 20.6231C18.8529 20.5858 18.8142 20.5575 18.77 20.5413C18.7259 20.5251 18.678 20.5217 18.632 20.5315C18.5859 20.5413 18.5436 20.5639 18.5099 20.5967C18.4761 20.6294 18.4523 20.6711 18.4411 20.7168L17.2036 25.7856C17.1661 25.9418 17.2849 26.0949 17.4442 26.0949L22.663 26.1199C22.8724 26.1199 22.9911 25.8793 22.8599 25.7168L21.6942 24.2199Z" fill=""/>
</svg>
