<svg width="28" height="28" viewBox="0 0 28 28" fill="" xmlns="http://www.w3.org/2000/svg">
<path d="M25.3093 22.8841C25.3193 22.808 25.3325 22.7329 25.3325 22.6542V4.92441C25.8529 4.62146 26.2068 4.06388 26.2068 3.41825C26.2068 2.45243 25.4239 1.66943 24.4581 1.66943C23.8124 1.66943 23.2548 2.02331 22.9519 2.5439H4.9795C4.67664 2.02331 4.11897 1.66943 3.47334 1.66943C2.5076 1.66943 1.72461 2.45243 1.72461 3.41825C1.72461 4.06388 2.07854 4.62146 2.59896 4.92441V22.6542C2.59896 22.7329 2.61208 22.808 2.62224 22.8841C2.08906 23.1837 1.72461 23.7478 1.72461 24.4029C1.72461 25.3686 2.5076 26.1516 3.47334 26.1516C4.43916 26.1516 5.22207 25.3686 5.22207 24.4029H22.7094C22.7094 25.3686 23.4923 26.1516 24.4581 26.1516C25.4239 26.1516 26.2069 25.3686 26.2069 24.4029C26.2068 23.7478 25.8424 23.1837 25.3093 22.8841ZM23.5837 22.6542H4.34769V4.92441C4.6101 4.77166 4.82687 4.55489 4.97961 4.29249H22.9519C23.1046 4.55489 23.3213 4.77166 23.5838 4.92441V22.6542H23.5837Z" fill=""/>
<path d="M18.3375 6.91565H9.59388H8.71953H7.84515V10.413H9.59388V8.66427H13.0913V18.2823H11.3426V20.0311H16.5888V18.2823H14.84V8.66427H18.3375V10.413H20.0863V6.91565H19.212H18.3375Z" fill=""/>
</svg>
